<svg width="100" height="60" viewBox="0 0 100 60" fill="none" xmlns="http://www.w3.org/2000/svg">
<path d="M100 0H0V60H100V0Z" fill="#00008B"/>
<path d="M26.3032 36.7572L27.8346 41.6351L32.4827 39.8249L29.7288 44.081L34.0007 46.6927L29.0571 47.1349L29.7288 52.1925L26.3032 48.4891L22.8776 52.1925L23.5627 47.1349L18.6191 46.6927L22.891 44.081L20.1371 39.8249L24.7852 41.6351L26.3032 36.7572Z" fill="white"/>
<path d="M78.9223 45.532L79.6477 47.8397L81.8642 46.9829L80.5477 49.0142L82.5896 50.2579L80.2253 50.4652L80.5477 52.8696L78.9223 51.1147L77.2968 52.8696L77.6192 50.4652L75.2549 50.2579L77.2968 49.0142L75.9803 46.9829L78.1968 47.8397L78.9223 45.532Z" fill="white"/>
<path d="M65.7709 24.0995L66.4963 26.421L68.7129 25.5642L67.3964 27.5956L69.4383 28.8254L67.074 29.0465L67.3964 31.4509L65.7709 29.6822L64.132 31.4509L64.4678 29.0465L62.1035 28.8254L64.1454 27.5956L62.8289 25.5642L65.0455 26.421L65.7709 24.0995Z" fill="white"/>
<path d="M78.9223 9.43811L79.6477 11.7596L81.8642 10.9029L80.5477 12.9342L82.5896 14.1779L80.2253 14.3851L80.5477 16.7896L78.9223 15.0346L77.2968 16.7896L77.6192 14.3851L75.2549 14.1779L77.2968 12.9342L75.9803 10.9029L78.1968 11.7596L78.9223 9.43811Z" fill="white"/>
<path d="M90.6234 20.4929L91.3354 22.8144L93.552 21.9577L92.2489 23.9752L94.2774 25.2189L91.9265 25.4261L92.2489 27.8444L90.6234 26.0756L88.9845 27.8444L89.3069 25.4261L86.9561 25.2189L88.9845 23.9752L87.6815 21.9577L89.8846 22.8144L90.6234 20.4929Z" fill="white"/>
<path d="M84.1887 31.3542L84.7529 32.7914L86.2709 32.9157L85.1156 33.9107L85.4783 35.4307L84.1887 34.6154L82.899 35.4307L83.2617 33.9107L82.1064 32.9157L83.611 32.7914L84.1887 31.3542Z" fill="white"/>
<path d="M21.9237 0V9.02349H0V18.047H21.9237V27.0705H30.6959V18.047H52.6196V9.02349H30.6959V0H21.9237Z" fill="white"/>
<path d="M0 0V3.02626L46.7356 27.0705H52.6196V24.0304L5.88393 0H0Z" fill="white"/>
<path d="M46.7356 0L0 24.0304V27.0705H5.88393L52.6196 3.02626V0H46.7356Z" fill="white"/>
<path d="M23.6835 0V10.8199H0V16.2368H23.6835V27.0705H28.9361V16.2368H52.6196V10.8199H28.9361V0H23.6835Z" fill="#EA0020"/>
<path d="M0 0V2.0175L13.6217 9.02349H17.5443L0 0ZM48.6969 0L31.1526 9.02349H35.0752L52.6196 0H48.6969Z" fill="#EA0020"/>
<path d="M17.5443 18.047L0 27.0705H3.92262L21.4535 18.047H17.5309H17.5443ZM35.0887 18.047L52.633 27.0705V25.053L39.0113 18.047H35.0887Z" fill="#EA0020"/>
</svg>
