<svg width="100" height="60" viewBox="0 0 100 60" fill="none" xmlns="http://www.w3.org/2000/svg">
<path d="M100 0H0V60H100V0Z" fill="white"/>
<path d="M100 0H0V19.9954H100V0Z" fill="#FF9933"/>
<path d="M100 40.0046H0V60H100V40.0046Z" fill="#128807"/>
<path d="M49.9992 21.0042C45.1631 21.0042 41.2539 25.0392 41.2539 30C41.2539 34.9608 45.1765 38.9959 49.9992 38.9959C54.8219 38.9959 58.7445 34.9608 58.7445 30C58.7445 25.0253 54.8219 21.0042 49.9992 21.0042ZM49.9992 21.8747L49.7842 26.3934L50.0126 28.9636L50.241 26.3934L50.0126 21.8747C50.241 21.8747 50.4559 21.8747 50.6843 21.9024C50.6843 21.9162 50.6843 21.93 50.6843 21.9438C50.6843 22.1511 50.8455 22.3169 51.047 22.3169C51.2351 22.3169 51.3829 22.1787 51.4097 21.9991C51.6247 22.0405 51.8396 22.082 52.0545 22.1373L50.6978 26.4486L50.2679 29.0051L51.141 26.573L52.068 22.1511C52.2829 22.2064 52.4978 22.2755 52.6994 22.3584C52.6859 22.3998 52.6725 22.4413 52.6725 22.4966C52.6725 22.7038 52.8337 22.8696 53.0352 22.8696C53.183 22.8696 53.3173 22.7729 53.371 22.6486C53.5725 22.7453 53.774 22.8558 53.9621 22.9664L51.5709 26.7665L50.5097 29.1156L51.9739 27.0014L53.9756 22.9664C54.1636 23.0769 54.3517 23.2013 54.5263 23.3257C54.486 23.3948 54.4457 23.4638 54.4457 23.5468C54.4457 23.754 54.6069 23.9199 54.8084 23.9199C54.9293 23.9199 55.0368 23.8646 55.0905 23.7679C55.2652 23.9199 55.4264 24.0719 55.5876 24.2239L52.3232 27.2501L50.7112 29.2538L52.6591 27.5956L55.601 24.2377C55.7622 24.4035 55.91 24.5693 56.0443 24.7351C55.9637 24.8042 55.91 24.901 55.91 25.0253C55.91 25.2326 56.0712 25.3984 56.2727 25.3984C56.3533 25.3984 56.4205 25.3708 56.4876 25.3293C56.6085 25.509 56.7294 25.7024 56.8503 25.9097L52.9277 27.9687L50.8724 29.4749L53.1561 28.3971L56.8503 25.9374C56.9712 26.1446 57.0653 26.3519 57.1727 26.573C57.0384 26.6283 56.9578 26.7665 56.9578 26.9185C56.9578 27.1258 57.119 27.2916 57.3205 27.2916C57.3743 27.2916 57.4146 27.2916 57.4549 27.2639C57.522 27.4712 57.5892 27.6785 57.6429 27.8858L53.3442 28.8393L50.9798 29.7375L53.4651 29.2953L57.6564 27.8996C57.7101 28.1207 57.7638 28.3418 57.8041 28.5629C57.6295 28.5905 57.4952 28.7425 57.4952 28.936C57.4952 29.1433 57.6564 29.3091 57.8579 29.3091C57.8713 29.3091 57.8847 29.3091 57.8982 29.3091C57.9116 29.5302 57.925 29.7651 57.925 29.9862L53.5322 29.7513L51.0201 29.9862L53.5322 30.2211L57.925 29.9862C57.925 30.2211 57.925 30.4422 57.8982 30.6633C57.8982 30.6633 57.8713 30.6633 57.8579 30.6633C57.6564 30.6633 57.4952 30.8291 57.4952 31.0364C57.4952 31.216 57.6295 31.3819 57.8041 31.4095C57.7638 31.6306 57.7235 31.8517 57.6564 32.0728L56.1652 31.5753L53.4785 30.6771L50.9933 30.2349L53.3576 31.1331L57.6564 32.0866C57.6026 32.3077 57.5355 32.515 57.4549 32.7361C57.4414 32.7361 57.4146 32.7361 57.4011 32.7223C57.4011 32.7223 57.3608 32.7223 57.334 32.7223C57.1325 32.7223 56.9712 32.8881 56.9712 33.0954C56.9712 33.1506 56.9713 33.1921 56.9981 33.2335C57.025 33.2888 57.0518 33.3441 57.1056 33.3717C57.1056 33.3717 57.119 33.3855 57.1324 33.3994C57.1324 33.3994 57.1459 33.3994 57.1593 33.4132C57.1593 33.4132 57.1727 33.4132 57.1862 33.427C57.0921 33.6343 56.9981 33.8416 56.8772 34.035L53.1829 31.5753L50.8992 30.4975L52.0948 31.368L52.9411 31.9899L56.8503 34.0488C56.7429 34.2423 56.622 34.4496 56.4876 34.6292C56.4339 34.5878 56.3533 34.5601 56.2727 34.5601C56.0712 34.5601 55.91 34.7259 55.91 34.9332C55.91 35.0438 55.9637 35.1543 56.0443 35.2234C55.91 35.3892 55.7622 35.555 55.601 35.7209L52.6456 32.363L50.7112 30.7186L52.3098 32.7084L55.5741 35.7485C55.4264 35.9005 55.2652 36.0525 55.104 36.1907C55.0368 36.1354 54.9562 36.1078 54.8756 36.1078C54.6741 36.1078 54.5129 36.2736 54.5129 36.4809C54.5129 36.5362 54.5129 36.5914 54.5398 36.6329C54.3517 36.7711 54.1502 36.8954 53.9487 37.0198L51.9471 32.9986L50.4962 30.8844L51.544 33.2335L53.9353 37.0336C53.7472 37.1442 53.5591 37.2547 53.3576 37.3376C53.3039 37.2133 53.1695 37.1165 53.0352 37.1165C52.8337 37.1165 52.6725 37.2824 52.6725 37.4896C52.6725 37.5311 52.6725 37.5864 52.6994 37.6278C52.4978 37.7107 52.2829 37.7798 52.068 37.8351L51.141 33.4132L50.2679 30.9811L50.6978 33.5375L52.0545 37.8489C51.8396 37.9042 51.6247 37.9595 51.4097 38.0009C51.3829 37.8213 51.2351 37.6831 51.047 37.6831C50.8455 37.6831 50.6843 37.8489 50.6843 38.0562C50.6843 38.07 50.6843 38.0838 50.6843 38.0977C50.4694 38.1115 50.241 38.1253 50.0261 38.1253L50.2544 33.6066L50.0261 31.0226L49.7977 33.6066L50.0261 38.1253C49.7977 38.1253 49.5693 38.1253 49.3544 38.0977C49.3544 38.0977 49.3544 38.07 49.3544 38.0562C49.3544 37.8489 49.1932 37.6831 48.9917 37.6831C48.8036 37.6831 48.6558 37.8213 48.629 38.0009C48.414 37.9595 48.1991 37.918 47.9976 37.8489L49.3544 33.5375L49.7708 30.9811L48.8976 33.4132L47.9707 37.8351C47.7558 37.7798 47.5408 37.7107 47.3393 37.6278C47.3528 37.5864 47.3662 37.5449 47.3662 37.4896C47.3662 37.2824 47.205 37.1165 47.0035 37.1165C46.8557 37.1165 46.7214 37.2133 46.6677 37.3376C46.4662 37.2409 46.2646 37.1442 46.0766 37.0198L48.4678 33.2197L49.5156 30.8706L48.0513 32.9848L46.0497 37.0198C45.8616 36.9093 45.6736 36.7849 45.4855 36.6467C45.5258 36.5776 45.5526 36.5085 45.5526 36.4256C45.5526 36.2183 45.3915 36.0525 45.19 36.0525C45.0825 36.0525 44.975 36.1078 44.9079 36.1907C44.7467 36.0387 44.5854 35.9005 44.4242 35.7347L47.6886 32.6946L49.3006 30.7047L47.3662 32.363L44.4108 35.7209C44.2496 35.555 44.1018 35.3892 43.9675 35.2234C44.0481 35.1543 44.1018 35.0438 44.1018 34.9332C44.1018 34.7259 43.9406 34.5601 43.7391 34.5601C43.6585 34.5601 43.5779 34.5878 43.5242 34.6292C43.4033 34.4496 43.2824 34.2561 43.1615 34.0488L47.0841 31.9899L49.1394 30.4975L46.8557 31.5753L43.1615 34.035C43.054 33.8416 42.96 33.6481 42.8659 33.4408C43.0003 33.3855 43.1077 33.2474 43.1077 33.0954C43.1077 32.8881 42.9465 32.7223 42.745 32.7223C42.6913 32.7223 42.6376 32.7361 42.5838 32.7637C42.5032 32.5426 42.4361 32.3215 42.3823 32.1004L46.6811 31.1469L49.0454 30.2487L46.5602 30.6909L42.3689 32.0866C42.3151 31.8655 42.2614 31.6444 42.2211 31.4233C42.3958 31.3957 42.5301 31.2437 42.5301 31.0502C42.5301 30.8429 42.3689 30.6771 42.1674 30.6771C42.154 30.6771 42.1405 30.6771 42.1271 30.6771C42.1137 30.456 42.1002 30.2211 42.1002 30L46.493 30.2349L48.9917 30L46.493 29.7651L42.1002 30C42.1002 29.7651 42.1137 29.544 42.1271 29.3229C42.154 29.3229 42.1674 29.3229 42.1942 29.3229C42.3957 29.3229 42.557 29.1571 42.557 28.9498C42.557 28.7425 42.4092 28.5905 42.2211 28.5767C42.2614 28.3556 42.3017 28.1345 42.3689 27.9134L46.5602 29.3091L49.0454 29.7513L46.6811 28.8531L42.3823 27.8996C42.4361 27.6785 42.5032 27.4574 42.5838 27.2501C42.6241 27.2639 42.6644 27.2778 42.7182 27.2778C42.9197 27.2778 43.0809 27.1119 43.0809 26.9047C43.0809 26.7527 42.9868 26.6145 42.8659 26.5592C42.96 26.3519 43.054 26.1446 43.1749 25.9512L46.8692 28.4109L49.1529 29.4887L47.0975 27.9825L43.1749 25.9235C43.2824 25.7301 43.4033 25.5366 43.5376 25.3432C43.6048 25.3846 43.6719 25.4123 43.7525 25.4123C43.954 25.4123 44.1152 25.2464 44.1152 25.0392C44.1152 24.9148 44.0615 24.8181 43.9809 24.749C44.1153 24.5831 44.263 24.4173 44.4242 24.2515L47.3796 27.6094L49.3275 29.2676L47.7155 27.2778L44.4511 24.2377C44.6123 24.0719 44.7735 23.9199 44.9347 23.7817C45.0019 23.8646 45.0959 23.9199 45.2168 23.9199C45.4183 23.9199 45.5795 23.754 45.5795 23.5468C45.5795 23.4638 45.5526 23.3809 45.5123 23.3257C45.687 23.2013 45.8751 23.0769 46.0631 22.9526L48.0647 26.9876L49.529 29.1018L48.4812 26.7527L46.09 22.9526C46.2781 22.842 46.4662 22.7453 46.6677 22.6486C46.7214 22.7867 46.8557 22.8835 47.0035 22.8835C47.205 22.8835 47.3662 22.7176 47.3662 22.5104C47.3662 22.4551 47.3662 22.3998 47.3393 22.3584C47.5543 22.2755 47.7692 22.2064 47.9841 22.1511L48.9111 26.573L49.7842 29.0051L49.3678 26.4486L48.011 22.1373C48.226 22.082 48.4409 22.0267 48.6558 21.9853C48.6827 22.1649 48.8305 22.3031 49.0185 22.3031C49.2201 22.3031 49.3812 22.1373 49.3812 21.93C49.3812 21.9162 49.3812 21.9024 49.3812 21.8885C49.5962 21.8747 49.8245 21.8609 50.0395 21.8609" fill="#16007E"/>
<path d="M50.0001 28.6595C50.7255 28.6595 51.3166 29.2676 51.3166 30.0138C51.3166 30.76 50.7255 31.368 50.0001 31.368C49.2746 31.368 48.6836 30.76 48.6836 30.0138C48.6836 29.2676 49.2746 28.6595 50.0001 28.6595Z" fill="white"/>
<path d="M50.0002 28.9636C50.5648 28.9636 51.0084 29.4335 51.0084 30.0138C51.0084 30.5942 50.5513 31.0502 50.0002 31.0502C49.449 31.0502 48.9785 30.5804 48.9785 30.0138C48.9785 29.4473 49.4356 28.9636 50.0002 28.9636Z" fill="#16007E"/>
</svg>
