<svg width="100" height="60" viewBox="0 0 100 60" fill="none" xmlns="http://www.w3.org/2000/svg">
<path d="M100 0H0V60H100V0Z" fill="#032EA1"/>
<path d="M100 15.007H0V45.007H100V15.007Z" fill="#E00025"/>
<path d="M68.5512 29.9447H31.4609V36.1078H68.5512V29.9447Z" fill="white"/>
<path d="M68.6191 36.1907H31.4617L31.3945 29.9447L68.552 29.8618L68.6326 36.1769L68.6191 36.1907ZM68.4714 29.9447L31.4617 30.0276L31.5423 36.1216L68.4714 36.0525V29.9585V29.9447Z" fill="#BA0019"/>
<path d="M31.4346 36.1078L30.8301 37.5587H69.1697L68.5652 36.1078H31.4346Z" fill="white"/>
<path d="M69.2772 37.6416H30.7227L31.3675 36.0802L68.5652 36.0387L69.2772 37.6416ZM30.9376 37.4896H69.0488L68.4846 36.1492L31.4212 36.1907L30.9242 37.4896H30.9376Z" fill="#BA0019"/>
<path d="M60.7196 36.1078L59.9941 37.5587H68.7126L67.9872 36.1078H60.7196Z" fill="white"/>
<path d="M68.8343 37.6416H59.874L60.6532 36.0802L67.9879 36.0387L68.8343 37.6416ZM60.1158 37.4896H68.5924L67.9208 36.1492L60.7203 36.1907L60.1158 37.4896Z" fill="#BA0019"/>
<path d="M62.8295 36.1078L62.4668 37.5587H66.8462L66.4835 36.1078H62.8295Z" fill="white"/>
<path d="M66.9536 37.6416H62.4668L62.7623 36.094L66.4969 36.0387L66.9536 37.6416ZM66.4163 36.1354L62.8295 36.1907L62.534 37.5864L66.7656 37.4896L66.4297 36.1354H66.4163Z" fill="#BA0019"/>
<path d="M63.4735 36.1078L63.2451 37.5587H66.0796L65.8378 36.1078H63.4735Z" fill="white"/>
<path d="M66.1609 37.6416H63.2324L63.3936 36.1078L65.8386 36.0387L66.1609 37.6416ZM65.7714 36.1216L63.4742 36.1907L63.313 37.5726L65.9863 37.4896L65.758 36.1216H65.7714Z" fill="#BA0019"/>
<path d="M46.1856 36.1078L45.4199 37.5587H54.5817L53.8159 36.1078H46.1856Z" fill="white"/>
<path d="M54.7012 37.6416H45.2842L46.1036 36.0802L53.8011 36.0387L54.6877 37.6416H54.7012ZM45.526 37.4896H54.4459L53.7339 36.1492L46.1574 36.1907L45.5125 37.4896H45.526Z" fill="#BA0019"/>
<path d="M68.7394 29.848H31.2461V31.299H68.7394V29.848Z" fill="white"/>
<path d="M68.8205 31.3819H31.2466L31.166 29.848L68.7399 29.7651L68.807 31.3681L68.8205 31.3819ZM68.6727 29.848L31.2466 29.931L31.3138 31.3128L68.6593 31.2437V29.8619L68.6727 29.848Z" fill="#BA0019"/>
<path d="M68.0142 29.9585H60.666V36.1077H68.0142V29.9585Z" fill="white"/>
<path d="M68.0944 36.1768H60.6656L60.585 29.9585L68.0138 29.8894L68.0944 36.1906V36.1768ZM67.9466 29.9585L60.6656 30.0414L60.7327 36.1077L67.9332 36.0386V29.9723L67.9466 29.9585Z" fill="#BA0019"/>
<path d="M66.671 32.8328H65.9316V36.0939H66.671V32.8328Z" fill="white"/>
<path d="M66.739 36.1769H65.9325L65.8652 32.8328L66.6718 32.7499L66.7525 36.1631L66.739 36.1769ZM66.5912 32.8328L65.9325 32.9157L66.0131 36.1078L66.6046 36.0387V32.8466L66.5912 32.8328Z" fill="#BA0019"/>
<path d="M63.4337 32.8328H62.6943V36.0939H63.4337V32.8328Z" fill="white"/>
<path d="M63.5015 36.1769H62.6949L62.6143 32.8328L63.4208 32.7499L63.4881 36.1631L63.5015 36.1769ZM63.3536 32.8328L62.6949 32.9157L62.7621 36.1078L63.3536 36.0387V32.8466V32.8328Z" fill="#BA0019"/>
<path d="M48.0519 36.1078L47.6758 37.5587H52.2701L51.8939 36.1078H48.0519Z" fill="white"/>
<path d="M52.3776 37.6416H47.6758L47.9847 36.094L51.8939 36.0387L52.3776 37.6416ZM51.8268 36.1354L48.0653 36.1907L47.7564 37.5864L52.1895 37.4896L51.8268 36.1354Z" fill="#BA0019"/>
<path d="M48.7906 36.1078L48.5488 37.5587H51.4371L51.2087 36.1078H48.7906Z" fill="white"/>
<path d="M51.5313 37.6417H48.5625L48.7371 36.094L51.2224 36.0249L51.5448 37.6279L51.5313 37.6417ZM51.1283 36.1216L48.7909 36.1907L48.6162 37.5726L51.3433 37.4897L51.1149 36.1216H51.1283Z" fill="#BA0019"/>
<path d="M53.8286 29.9447H46.0908V36.1078H53.8286V29.9447Z" fill="white"/>
<path d="M53.909 36.1907H46.0906L46.0234 29.9447L53.8418 29.8618L53.9224 36.1769L53.909 36.1907ZM53.7612 29.9447L46.0906 30.0276L46.1712 36.1216L53.7612 36.0525V29.9585V29.9447Z" fill="#BA0019"/>
<path d="M52.9962 32.8328H52.2568V36.0939H52.9962V32.8328Z" fill="white"/>
<path d="M53.064 36.1768H52.2574L52.1768 32.8328L52.9833 32.7637L53.0505 36.1768H53.064ZM52.9161 32.8328L52.2574 32.9157L52.3246 36.1078L52.9161 36.0387V32.8466V32.8328Z" fill="#BA0019"/>
<path d="M47.878 32.8328H47.1387V36.0939H47.878V32.8328Z" fill="white"/>
<path d="M47.9585 36.1768H47.1519L47.0713 32.8328L47.8779 32.7637L47.9451 36.1768H47.9585ZM47.8107 32.8328L47.1519 32.9157L47.2192 36.1078L47.8107 36.0387V32.8466V32.8328Z" fill="#BA0019"/>
<path d="M51.8671 28.4523H48.1191V36.1077H51.8671V28.4523Z" fill="white"/>
<path d="M51.9485 36.1907H48.1333L48.0527 28.4523L51.8813 28.3694L51.9485 36.1768V36.1907ZM51.8007 28.4523L48.1199 28.5214L48.1871 36.1078L51.7873 36.0387V28.4523H51.8007Z" fill="#BA0019"/>
<path d="M51.6788 32.8328H50.9395V36.0939H51.6788V32.8328Z" fill="white"/>
<path d="M51.7468 36.1768H50.9402L50.873 32.8328L51.6796 32.7637L51.7603 36.1768H51.7468ZM51.599 32.8328L50.9402 32.9157L51.0209 36.1078L51.6124 36.0387V32.8466L51.599 32.8328Z" fill="#BA0019"/>
<path d="M49.2081 32.8328H48.4688V36.0939H49.2081V32.8328Z" fill="white"/>
<path d="M49.2752 36.1768H48.4686L48.4014 32.8328L49.208 32.7637L49.2752 36.1768ZM49.1273 32.8328L48.4686 32.9157L48.5492 36.1078L49.1407 36.0387V32.8466L49.1273 32.8328Z" fill="#BA0019"/>
<path d="M48.375 29.6821L49.9467 32.0313L51.6259 29.6821H48.375Z" fill="white"/>
<path d="M49.947 32.1695L48.2275 29.613H51.774L49.947 32.1695ZM48.4962 29.765L49.947 31.9069L51.4785 29.765H48.4962Z" fill="#BA0019"/>
<path d="M65.6657 29.9447H63.582V37.5587H65.6657V29.9447Z" fill="white"/>
<path d="M65.7462 37.6416H63.5819L63.5146 29.9447L65.6655 29.8618L65.7462 37.6278V37.6416ZM65.5983 29.9447L63.5819 30.0276L63.6625 37.5725L65.5983 37.5035V29.9585V29.9447Z" fill="#BA0019"/>
<path d="M65.3153 29.9447H63.9307V37.5587H65.3153V29.9447Z" fill="white"/>
<path d="M65.3958 37.6416H63.9305L63.8633 29.9447L65.3286 29.8618L65.4092 37.6278L65.3958 37.6416ZM65.2479 29.9447L63.9305 30.0276L64.0112 37.5725L65.2479 37.5035V29.9585V29.9447Z" fill="#BA0019"/>
<path d="M31.9324 36.1078L31.207 37.5587H39.9254L39.2 36.1078H31.9324Z" fill="white"/>
<path d="M40.0462 37.6416H31.0859L31.8651 36.0802L39.1999 36.0387L40.0462 37.6416ZM31.3278 37.4896H39.8044L39.1327 36.1492L31.9323 36.1907L31.3278 37.4896Z" fill="#BA0019"/>
<path d="M33.6784 36.1078L33.3291 37.5587H37.4264L37.0905 36.1078H33.6784Z" fill="white"/>
<path d="M37.5204 37.6416H33.3291L33.5978 36.094L37.0905 36.0387L37.5204 37.6416ZM37.0099 36.1354L33.6649 36.1907L33.3963 37.5864L37.3323 37.4896L37.0099 36.1354Z" fill="#BA0019"/>
<path d="M34.2833 36.1078L34.0684 37.5587H36.6745L36.4595 36.1078H34.2833Z" fill="white"/>
<path d="M36.7685 37.6416H34.0684L34.2161 36.1078L36.473 36.0387L36.782 37.6416H36.7685ZM36.3924 36.1216L34.2833 36.1907L34.1355 37.5726L36.5939 37.4896L36.3924 36.1216Z" fill="#BA0019"/>
<path d="M39.1724 29.9447H31.8779V36.1078H39.1724V29.9447Z" fill="white"/>
<path d="M39.2401 36.1907H31.8785L31.7979 29.9447L39.1595 29.8618L39.2401 36.1769V36.1907ZM39.0923 29.9447L31.8785 30.0276L31.9456 36.1216L39.0923 36.0525V29.9585V29.9447Z" fill="#BA0019"/>
<path d="M34.0411 32.8328H33.3018V36.0939H34.0411V32.8328Z" fill="white"/>
<path d="M34.1082 36.1769H33.3016L33.2344 32.8328L34.041 32.7499L34.1216 36.1631L34.1082 36.1769ZM33.9603 32.8328L33.3016 32.9157L33.3822 36.1078L33.9737 36.0387V32.8466L33.9603 32.8328Z" fill="#BA0019"/>
<path d="M37.4132 32.8328H36.6738V36.0939H37.4132V32.8328Z" fill="white"/>
<path d="M37.4812 36.1769H36.6746L36.6074 32.8328L37.414 32.7499L37.4947 36.1631L37.4812 36.1769ZM37.3334 32.8328L36.6746 32.9157L36.7553 36.1078L37.3468 36.0387V32.8466L37.3334 32.8328Z" fill="#BA0019"/>
<path d="M36.4606 29.9447H34.377V37.5587H36.4606V29.9447Z" fill="white"/>
<path d="M36.5274 37.6416H34.3766L34.2959 29.9447L36.4602 29.8618L36.5274 37.6278V37.6416ZM36.3796 29.9447L34.3766 30.0276L34.4438 37.5725L36.3796 37.5035V29.9585V29.9447Z" fill="#BA0019"/>
<path d="M36.1102 29.9447H34.7256V37.5587H36.1102V29.9447Z" fill="white"/>
<path d="M36.1778 37.6416H34.7125L34.6318 29.9447L36.0971 29.8618L36.1643 37.6278L36.1778 37.6416ZM36.0299 29.9447L34.7125 30.0276L34.7797 37.5725L36.0165 37.5035V29.9585L36.0299 29.9447Z" fill="#BA0019"/>
<path d="M69.1697 28.4938H30.8301V29.9447H69.1697V28.4938Z" fill="white"/>
<path d="M69.2366 30.0276H30.8299L30.7627 28.5076L69.1695 28.4247L69.2501 30.0276H69.2366ZM69.0889 28.5076L30.8299 28.5767L30.9105 29.9447L69.0889 29.8756V28.4938V28.5076Z" fill="#BA0019"/>
<path d="M70.0704 37.1995H29.7695V39.065H70.0704V37.1995Z" fill="white"/>
<path d="M70.1506 39.1479H29.7691L29.6885 37.1995L70.07 37.1166L70.1506 39.1341V39.1479ZM70.0028 37.1995L29.7691 37.2686L29.8362 39.065L70.0028 38.9959V37.1995Z" fill="#BA0019"/>
<path d="M70.6882 37.6002H29.1514V39.4657H70.6882V37.6002Z" fill="white"/>
<path d="M70.7683 39.5487H29.1509L29.0703 37.6002L70.6877 37.5173L70.7683 39.5348V39.5487ZM70.6206 37.6002L29.1509 37.6832L29.2181 39.4796L70.6071 39.4105V37.6141L70.6206 37.6002Z" fill="#BA0019"/>
<path d="M71.9236 38.6642H28.0762V40.5297H71.9236V38.6642Z" fill="white"/>
<path d="M71.9915 40.6126H28.0769L28.0098 38.6642L71.9243 38.5951L72.0049 40.6126H71.9915ZM71.8437 38.6642L28.0769 38.7471L28.1575 40.5435L71.8572 40.4744V38.678L71.8437 38.6642Z" fill="#BA0019"/>
<path d="M73.4686 40.0046H26.5449V41.8701H73.4686V40.0046Z" fill="white"/>
<path d="M73.5356 41.9392H26.5447L26.4775 39.9907L73.4684 39.9078L73.549 41.9253L73.5356 41.9392ZM73.3878 39.9907L26.5447 40.0737L26.6253 41.8563L73.4012 41.7872V39.9907H73.3878Z" fill="#BA0019"/>
<path d="M74.9858 41.8839H25.0127V43.7356H74.9858V41.8839Z" fill="white"/>
<path d="M75.0672 43.8047H25.0135L24.9463 41.8839L75 41.801L75.0806 43.8047H75.0672ZM74.9194 41.8839L25.0135 41.953L25.0941 43.7218L74.9194 43.6527V41.8839Z" fill="#BA0019"/>
<path d="M36.4606 37.1995H34.377V43.7356H36.4606V37.1995Z" fill="white"/>
<path d="M36.5274 43.8047H34.3766L34.2959 37.1995L36.4602 37.1166L36.5274 43.8047ZM36.3796 37.1995L34.3766 37.2686L34.4438 43.7218L36.3796 43.6527V37.1995Z" fill="#BA0019"/>
<path d="M36.1237 37.1995H34.7256V43.7356H36.1237V37.1995Z" fill="white"/>
<path d="M36.1917 43.8047H34.7264L34.6592 37.1995L36.1245 37.1166L36.2051 43.8047H36.1917ZM36.0438 37.1995L34.7264 37.2686L34.8071 43.7218L36.0438 43.6527V37.1995Z" fill="#BA0019"/>
<path d="M65.6247 37.1995H63.541V43.7356H65.6247V37.1995Z" fill="white"/>
<path d="M65.6925 43.8047H63.5416L63.4609 37.1995L65.6253 37.1166L65.6925 43.8047ZM65.5446 37.1995L63.5416 37.2686L63.6088 43.7218L65.5446 43.6527V37.1995Z" fill="#BA0019"/>
<path d="M65.2887 37.1995H63.8906V43.7356H65.2887V37.1995Z" fill="white"/>
<path d="M65.3557 43.8047H63.8904L63.8232 37.1995L65.2885 37.1166L65.3692 43.8047H65.3557ZM65.2079 37.1995L63.8904 37.2686L63.9711 43.7218L65.2079 43.6527V37.1995Z" fill="#BA0019"/>
<path d="M50.9148 29.9447H49.2344V43.7356H50.9148V29.9447Z" fill="white"/>
<path d="M50.9818 43.8047H49.2342L49.167 29.9447L50.9146 29.8618L50.9952 43.8047H50.9818ZM50.8339 29.9447L49.2342 30.0276L49.3149 43.7356L50.8474 43.6665V29.9585L50.8339 29.9447Z" fill="#BA0019"/>
<path d="M61.1504 30.0138L61.1773 26.2275C61.1773 26.2275 61.5534 26.9737 64.4551 27.1257C67.1955 27.029 67.6523 26.573 67.7732 26.1722L67.6657 30.0138H61.1638H61.1504Z" fill="white"/>
<path d="M67.7192 30.0968H61.1368L61.083 26.2276V25.9374L61.2174 26.1861C61.2174 26.1861 61.6338 26.8909 64.428 27.0429C67.0879 26.9461 67.5715 26.5178 67.6789 26.1447L67.8267 26.1723L67.7058 30.0829L67.7192 30.0968ZM61.2308 26.421V30.0138L67.5715 29.9586L67.6789 26.5039C67.3834 26.8494 66.6177 27.1534 64.4414 27.2225C62.3055 27.0981 61.5129 26.6698 61.2308 26.4348V26.421Z" fill="#BA0019"/>
<path d="M63.0172 25.5781L62.1172 24.8319C62.4127 24.6384 62.9769 24.9701 62.9769 24.9701C62.9769 24.9701 63.2725 24.1133 64.5621 23.754C65.8517 24.1133 66.1473 24.9701 66.1473 24.9701C66.1473 24.9701 66.6981 24.6384 67.007 24.8319L66.107 25.5781H63.0307H63.0172Z" fill="white"/>
<path d="M66.1207 25.661H63.0175L62.0771 24.9009C62.1578 24.7351 62.2518 24.7075 62.3592 24.7075C62.6413 24.7075 62.9503 24.8733 63.0041 24.9148C62.9638 24.8319 63.313 24.0442 64.5489 23.6987C65.758 24.0304 66.1341 24.7628 66.2013 24.9286C66.2416 24.8319 66.7924 24.6246 67.0342 24.7904L66.1207 25.6748V25.661ZM62.3458 24.8595C62.2652 24.8595 62.198 24.8733 62.1577 24.9148L63.0578 25.5366H66.0669L66.8595 24.8733C66.8327 24.8733 66.7924 24.8733 66.7655 24.8733C66.4968 24.8733 66.1878 25.0668 66.1744 25.0668C66.0669 25.0253 65.758 24.21 64.5355 23.8646C63.3533 24.21 63.0444 25.0253 63.0444 25.0253C62.9235 25.0668 62.6145 24.8733 62.3458 24.8733V24.8595Z" fill="#BA0019"/>
<path d="M62.5603 27.4988L61.3916 26.4624C61.7812 26.1998 62.5066 26.6559 62.5066 26.6559C62.5066 26.6559 62.8961 25.4675 64.5619 24.9562C66.2277 25.4536 66.6173 26.6559 66.6173 26.6559C66.6173 26.6559 67.3427 26.1998 67.7323 26.4624L66.5635 27.4988H62.5603Z" fill="white"/>
<path d="M66.5907 27.5817H62.5606L61.3516 26.5177C61.459 26.338 61.5665 26.2966 61.7009 26.2966C62.077 26.2966 62.48 26.5453 62.5337 26.5868C62.48 26.5039 62.9099 25.3846 64.5353 24.8871C66.134 25.3569 66.6041 26.4071 66.6713 26.6006C66.7116 26.4762 67.437 26.1722 67.7594 26.3933L66.5772 27.5679L66.5907 27.5817ZM61.7009 26.4624C61.5934 26.4624 61.5128 26.49 61.4456 26.5315L62.6143 27.4573H66.5369L67.6519 26.4486C67.5848 26.49 67.5176 26.4762 67.4236 26.4762C67.0743 26.4762 66.6579 26.7388 66.6579 26.7388C66.5504 26.6835 66.1474 25.5366 64.5353 25.0529C62.9636 25.5366 62.574 26.6835 62.574 26.6973C62.4531 26.7388 62.0501 26.4762 61.7009 26.4762V26.4624Z" fill="#BA0019"/>
<path d="M64.5764 19.7881C64.5764 19.7881 65.9745 22.2892 64.5764 22.3307C63.1784 22.3721 64.5764 19.871 64.5764 19.7881Z" fill="white"/>
<path d="M64.5491 22.3998C64.2803 22.3998 64.0921 22.3169 63.9845 22.1373C63.6485 21.5983 64.2265 20.3685 64.4416 19.9125C64.4819 19.8434 64.4954 19.7881 64.5088 19.7743C64.5223 19.7743 64.5491 19.7743 64.576 19.7881H64.6567C64.6567 19.7881 64.6567 19.8157 64.6433 19.8434C64.8987 20.1059 65.2751 21.0594 65.2885 21.6122C65.2885 22.1096 65.0465 22.386 64.5895 22.3998H64.5626H64.5491ZM64.5895 19.9401C64.5895 19.9401 64.5895 19.9678 64.576 19.9678C64.3878 20.3685 63.8232 21.5707 64.1055 22.0405C64.1862 22.1787 64.3341 22.234 64.5491 22.234V22.3031L64.576 22.234C64.8314 22.234 64.9928 22.1373 65.0734 21.9576C65.3019 21.4325 64.7911 20.2856 64.5895 19.9401Z" fill="#BA0019"/>
<path d="M63.3931 22.9664L62.708 22.5795C62.9364 22.4828 63.3662 22.6486 63.3662 22.6486C63.3662 22.6486 63.5946 22.2064 64.5887 22.0129C65.5694 22.2064 65.8112 22.6486 65.8112 22.6486C65.8112 22.6486 66.2411 22.469 66.4694 22.5795L65.7709 22.9664H63.4066H63.3931Z" fill="white"/>
<path d="M65.7841 23.0355H63.393L62.5332 22.5657L62.6675 22.5104C62.8691 22.4275 63.2855 22.5519 63.3661 22.5795C63.3392 22.5242 63.6213 22.1235 64.5617 21.9438C65.4752 22.1097 65.7842 22.4966 65.8379 22.5933C65.8648 22.5242 66.2812 22.4275 66.4693 22.5104L66.6036 22.5657L65.7573 23.0355H65.7841ZM62.9362 22.621L63.4333 22.8973H65.7438L66.214 22.621C66.026 22.6348 65.8244 22.7177 65.811 22.7177C65.717 22.6762 65.4886 22.2617 64.5617 22.082C63.6616 22.2617 63.4198 22.6762 63.4198 22.6762C63.3392 22.7039 63.1243 22.621 62.9362 22.6071V22.621Z" fill="#BA0019"/>
<path d="M63.9715 23.2842V22.9663C63.9715 22.9663 64.079 22.5241 64.5764 22.3307C65.0872 22.5241 65.1948 22.9663 65.1948 22.9663V23.2842H63.958H63.9715Z" fill="white"/>
<path d="M65.2616 23.3533H63.9711L63.877 22.9663C63.877 22.9663 64.0114 22.4551 64.5491 22.2616C65.1406 22.4551 65.2616 22.9249 65.275 22.9525V23.3671H65.2616V23.3533ZM64.5625 22.3998C64.1458 22.5656 64.0383 22.9663 64.0383 22.9802L64.0652 23.2703L65.1406 23.2013V22.9525H65.154C65.154 22.9525 65.0331 22.5656 64.576 22.386L64.5625 22.3998Z" fill="#BA0019"/>
<path d="M63.3667 24.2238L63.3398 23.7954C63.3398 23.7954 63.5816 23.2012 64.5892 22.9525C65.5967 23.2012 65.8385 23.7954 65.8385 23.7954L65.7982 24.2238H63.3667Z" fill="white"/>
<path d="M65.8649 24.3067H63.3662L63.2588 23.8093C63.2588 23.8093 63.5274 23.146 64.5618 22.8834C65.6365 23.146 65.8918 23.754 65.8918 23.7816L65.8515 24.3067H65.8649ZM64.5618 23.0354C63.6349 23.2703 63.3931 23.8369 63.3931 23.8369L63.4334 24.2238L65.7306 24.1547L65.7574 23.7954C65.7574 23.7954 65.5022 23.2565 64.5618 23.0216V23.0354Z" fill="#BA0019"/>
<path d="M63.3667 24.8594L63.3398 24.4311C63.3398 24.4311 63.5816 23.8369 64.5892 23.5881C65.5967 23.8369 65.8385 24.4311 65.8385 24.4311L65.7982 24.8594H63.3667Z" fill="white"/>
<path d="M65.8649 24.9425H63.3662L63.2588 24.445C63.2588 24.445 63.5274 23.7817 64.5618 23.5192C65.6365 23.7817 65.8918 24.3897 65.8918 24.4035L65.8515 24.9287L65.8649 24.9425ZM64.5618 23.6712C63.6349 23.9061 63.3931 24.4726 63.3931 24.4726L63.4334 24.8596L65.7306 24.7905L65.7574 24.4312C65.7574 24.4312 65.5022 23.8923 64.5618 23.6574V23.6712Z" fill="#BA0019"/>
<path d="M63.3931 26.7665L62.708 25.7301C62.9364 25.4537 63.3662 25.9236 63.3662 25.9236C63.3662 25.9236 63.5946 24.7352 64.5887 24.2239C65.5694 24.7213 65.8112 25.9236 65.8112 25.9236C65.8112 25.9236 66.2411 25.4537 66.4694 25.7301L65.7709 26.7665H63.4066H63.3931Z" fill="white"/>
<path d="M65.7985 26.8494H63.3939L62.6416 25.7716C62.8297 25.3155 63.1521 25.6472 63.3133 25.7716C63.4073 25.4399 63.7163 24.5693 64.5357 24.1548C65.4224 24.5693 65.7313 25.4537 65.8254 25.7716C65.9866 25.6334 66.3224 25.4675 66.497 25.6748L65.7851 26.8356L65.7985 26.8494ZM62.8834 25.7301C62.8834 25.7301 62.7894 25.7439 62.7625 25.7854L63.4611 26.7388L65.7313 26.7112L66.3896 25.7163C66.3896 25.7163 66.3224 25.7301 66.2821 25.7301C66.1209 25.7301 65.9194 25.9097 65.8522 25.9788L65.7582 26.0894L65.7313 25.9512C65.7313 25.9512 65.4895 24.7904 64.5492 24.3068C63.676 24.7904 63.4342 25.9374 63.4342 25.9512L63.4073 26.0894L63.3133 25.9788C63.2461 25.9097 63.0446 25.7301 62.8834 25.7301Z" fill="#BA0019"/>
<path d="M63.3931 28.0377L62.708 27.0013C62.9364 26.7388 63.3662 27.1948 63.3662 27.1948C63.3662 27.1948 63.5946 26.0064 64.5887 25.4951C65.5694 25.9926 65.8112 27.1948 65.8112 27.1948C65.8112 27.1948 66.2411 26.7388 66.4694 27.0013L65.7709 28.0377H63.4066H63.3931Z" fill="white"/>
<path d="M65.7985 28.1206H63.3939L62.6416 27.0428C62.8297 26.5868 63.1521 26.9184 63.3133 27.0428C63.4073 26.7111 63.7163 25.8406 64.5357 25.426C65.4224 25.8406 65.7313 26.7111 65.8254 27.0428C65.9866 26.9046 66.3358 26.7388 66.497 26.9461L65.7851 28.1068L65.7985 28.1206ZM62.8834 27.0013C62.8834 27.0013 62.7894 27.0152 62.7625 27.0566L63.4611 28.0101L65.7313 27.9825L66.3896 26.9875C66.3896 26.9875 66.3224 27.0013 66.2821 27.0013C66.1209 27.0013 65.9194 27.181 65.8522 27.2501L65.7582 27.3606L65.7313 27.2224C65.7313 27.2224 65.4895 26.0617 64.5492 25.578C63.676 26.0617 63.4342 27.2086 63.4342 27.2224L63.4073 27.3606L63.3133 27.2501C63.2461 27.181 63.0446 27.0013 62.8834 27.0013Z" fill="#BA0019"/>
<path d="M63.3667 29.9447L63.3398 28.8807C63.3398 28.8807 63.5816 27.3883 64.5892 26.7665C65.5967 27.3883 65.8385 28.8807 65.8385 28.8807L65.7982 29.9447H63.3667Z" fill="white"/>
<path d="M65.8656 30.0276H63.3536L63.2461 28.8945C63.2461 28.8116 63.5013 27.3468 64.5357 26.7112C65.6373 27.3468 65.8791 28.8116 65.8925 28.8807L65.8522 30.0276H65.8656ZM64.5357 26.8494C63.6357 27.4436 63.3939 28.8945 63.3939 28.9083L63.4342 29.9447L65.7179 29.8756L65.7448 28.8945C65.7448 28.8945 65.503 27.4436 64.5357 26.8494Z" fill="#BA0019"/>
<path d="M63.3931 29.9447L62.708 29.1708C62.9364 28.9636 63.3662 29.309 63.3662 29.309C63.3662 29.309 63.5946 28.4108 64.5887 28.0377C65.5694 28.4108 65.8112 29.309 65.8112 29.309C65.8112 29.309 66.2411 28.9636 66.4694 29.1708L65.7709 29.9447H63.4066H63.3931Z" fill="white"/>
<path d="M65.7978 30.0277H63.3932L62.6543 29.2262C62.7215 29.0604 62.8021 29.0328 62.8827 29.0328C63.0439 29.0328 63.2185 29.1295 63.326 29.1986C63.42 28.9498 63.729 28.2866 64.5619 27.9825C65.4351 28.3004 65.744 28.9498 65.8515 29.1986C65.9993 29.1018 66.3351 28.9637 66.5232 29.1157L65.8112 30.0277H65.7978ZM62.8827 29.1848C62.8827 29.1848 62.7886 29.1986 62.7483 29.2262L63.4469 29.8895L65.7306 29.8619L66.3485 29.1709C66.3485 29.1709 66.3083 29.1709 66.2814 29.1709C66.1202 29.1709 65.9187 29.3091 65.8515 29.3644L65.7575 29.4335L65.7306 29.3229C65.7306 29.3229 65.5022 28.4662 64.5619 28.1069C63.6753 28.4662 63.4469 29.3229 63.4469 29.3229L63.42 29.4335L63.326 29.3644C63.326 29.3644 63.0842 29.1709 62.8961 29.1709L62.8827 29.1848Z" fill="#BA0019"/>
<path d="M33.8932 25.3155L32.9932 24.5693C33.2887 24.3758 33.8529 24.7075 33.8529 24.7075C33.8529 24.7075 34.1485 23.8507 35.4381 23.5052C36.7277 23.8645 37.0233 24.7075 37.0233 24.7075C37.0233 24.7075 37.5741 24.3758 37.883 24.5693L36.983 25.3155H33.9067H33.8932Z" fill="white"/>
<path d="M37.0093 25.3846H33.9062L32.9658 24.6246C33.0464 24.4588 33.1404 24.4311 33.2479 24.4311C33.53 24.4311 33.839 24.597 33.8927 24.6246C33.8524 24.5417 34.2017 23.754 35.4376 23.4086C36.6466 23.7402 37.0228 24.4726 37.0899 24.6384C37.1302 24.5279 37.681 24.3344 37.9228 24.5002L37.0093 25.3846ZM33.2345 24.5831C33.1539 24.5831 33.0867 24.597 33.0464 24.6384L33.9465 25.2603H36.9556L37.7482 24.597C37.7213 24.597 37.681 24.597 37.6541 24.597C37.3855 24.597 37.0631 24.7766 37.0631 24.7904C36.9556 24.749 36.6466 23.9337 35.4242 23.5882C34.242 23.9337 33.933 24.749 33.933 24.749C33.8121 24.7904 33.5032 24.597 33.2345 24.597V24.5831Z" fill="#BA0019"/>
<path d="M33.4363 27.2363L32.2676 26.1999C32.6572 25.9374 33.3826 26.3934 33.3826 26.3934C33.3826 26.3934 33.7721 25.205 35.4379 24.6937C37.1037 25.1912 37.4933 26.3934 37.4933 26.3934C37.4933 26.3934 38.2187 25.9374 38.6083 26.1999L37.4395 27.2363H33.4363Z" fill="white"/>
<path d="M37.4664 27.3054H33.4363L32.2139 26.2413C32.3213 26.0617 32.4288 26.0202 32.5631 26.0202C32.9393 26.0202 33.3423 26.269 33.4095 26.2966C33.3557 26.2137 33.7856 25.0944 35.4111 24.5969C37.0097 25.0668 37.4799 26.117 37.547 26.3104C37.5873 26.1861 38.3127 25.882 38.6351 26.1031L37.453 27.2777L37.4664 27.3054ZM32.5766 26.1861C32.4691 26.1861 32.3885 26.2137 32.3213 26.2551L33.4901 27.1672H37.4127L38.5277 26.1584C38.4739 26.1999 38.3933 26.1722 38.2993 26.1861C37.95 26.1861 37.5336 26.4486 37.5336 26.4486C37.4261 26.3933 37.0231 25.2464 35.4111 24.7627C33.8393 25.2464 33.4498 26.3933 33.4498 26.4072C33.3423 26.4624 32.9124 26.1861 32.5631 26.1861H32.5766Z" fill="#BA0019"/>
<path d="M32.2676 30.0138L32.2945 26.2275C32.2945 26.2275 32.6706 26.9737 35.5723 27.1257C38.3127 27.029 38.7695 26.573 38.8904 26.1722L38.7829 30.0138H32.281H32.2676Z" fill="white"/>
<path d="M38.8501 30.0968H32.2676L32.2139 26.2276V25.9374L32.3482 26.1861C32.3482 26.1861 32.7646 26.8909 35.5588 27.0429C38.2187 26.9461 38.7023 26.5178 38.8098 26.1447L38.9575 26.1723L38.8366 30.0829L38.8501 30.0968ZM32.3616 26.421V30.0138L38.7023 29.9586L38.8098 26.5039C38.5142 26.8494 37.7485 27.1534 35.5723 27.2225C33.4363 27.0981 32.6437 26.6698 32.3616 26.4348V26.421Z" fill="#BA0019"/>
<path d="M35.4114 19.7881C35.4114 19.7881 36.8095 22.2892 35.4114 22.3307C34.0133 22.3721 35.4114 19.871 35.4114 19.7881Z" fill="white"/>
<path d="M35.3851 22.3998C35.1162 22.3998 34.928 22.3169 34.8205 22.1373C34.4844 21.5983 35.0625 20.3685 35.2775 19.9125C35.3044 19.8434 35.3313 19.7881 35.3447 19.7743C35.3716 19.7743 35.3851 19.7743 35.412 19.7881H35.4926C35.4926 19.7881 35.4926 19.8157 35.4792 19.8434C35.7346 20.1059 36.111 21.0594 36.1244 21.6122C36.1244 22.1096 35.8825 22.386 35.4254 22.3998H35.3985H35.3851ZM35.4254 19.9401C35.4254 19.9401 35.4254 19.9678 35.412 19.9678C35.2238 20.3685 34.6592 21.5707 34.9415 22.0405C35.0221 22.1787 35.17 22.234 35.3851 22.234V22.3031L35.412 22.234C35.6674 22.234 35.8287 22.1373 35.9094 21.9576C36.1379 21.4325 35.6271 20.2856 35.4254 19.9401Z" fill="#BA0019"/>
<path d="M34.2291 22.9664L33.5439 22.5795C33.7723 22.4828 34.2022 22.6486 34.2022 22.6486C34.2022 22.6486 34.4306 22.2064 35.4247 22.0129C36.4053 22.2064 36.6471 22.6486 36.6471 22.6486C36.6471 22.6486 37.077 22.469 37.3054 22.5795L36.6203 22.9664H34.2559H34.2291Z" fill="white"/>
<path d="M36.6201 23.0355H34.2289L33.3691 22.5657L33.5035 22.5104C33.705 22.4275 34.1214 22.5519 34.202 22.5795C34.1752 22.5242 34.4573 22.1235 35.3976 21.9438C36.3111 22.1097 36.6201 22.4966 36.6738 22.5933C36.7007 22.5242 37.1171 22.4275 37.3052 22.5104L37.4395 22.5657L36.6066 23.0355H36.6201ZM33.7721 22.621L34.2692 22.8973H36.5798L37.0499 22.621C36.8619 22.6348 36.6604 22.7177 36.6469 22.7177C36.5529 22.6762 36.3245 22.2617 35.3976 22.082C34.4976 22.2617 34.2557 22.6762 34.2557 22.6762C34.1751 22.7039 33.9602 22.621 33.7721 22.6071V22.621Z" fill="#BA0019"/>
<path d="M34.8064 23.2842V22.9663C34.8064 22.9663 34.9139 22.5241 35.4113 22.3307C35.9222 22.5241 36.0297 22.9663 36.0297 22.9663V23.2842H34.793H34.8064Z" fill="white"/>
<path d="M36.0975 23.3533H34.807L34.7129 22.9663C34.7129 22.9663 34.8473 22.4551 35.385 22.2616C35.9765 22.4551 36.0975 22.9249 36.111 22.9525V23.3671H36.0975V23.3533ZM35.3985 22.3998C34.9817 22.5656 34.8742 22.9663 34.8608 22.9802L34.8876 23.2703L35.9631 23.2013V22.9525C35.9631 22.9525 35.8421 22.5656 35.385 22.386L35.3985 22.3998Z" fill="#BA0019"/>
<path d="M34.2027 24.2238L34.1758 23.7954C34.1758 23.7954 34.4042 23.2012 35.4251 22.9525C36.4326 23.2012 36.6744 23.7954 36.6744 23.7954L36.6341 24.2238H34.2027Z" fill="white"/>
<path d="M36.7009 24.3067H34.2022L34.0947 23.8093C34.0947 23.8093 34.3634 23.146 35.3978 22.8834C36.4725 23.146 36.7277 23.754 36.7412 23.7816L36.7009 24.3067ZM35.3978 23.0354C34.4709 23.2703 34.2291 23.8369 34.2291 23.8369L34.2694 24.2238L36.5665 24.1547L36.5934 23.7954C36.5934 23.7954 36.3381 23.2565 35.3978 23.0216V23.0354Z" fill="#BA0019"/>
<path d="M34.2027 24.8594L34.1758 24.4311C34.1758 24.4311 34.4042 23.8369 35.4251 23.5881C36.4326 23.8369 36.6744 24.4311 36.6744 24.4311L36.6341 24.8594H34.2027Z" fill="white"/>
<path d="M36.7009 24.9425H34.2022L34.0947 24.445C34.0947 24.445 34.3634 23.7817 35.3978 23.5192C36.4725 23.7817 36.7277 24.3897 36.7412 24.4035L36.7009 24.9287V24.9425ZM35.3978 23.6712C34.4709 23.9061 34.2291 24.4726 34.2291 24.4726L34.2694 24.8596L36.5665 24.7905L36.5934 24.4312C36.5934 24.4312 36.3381 23.8923 35.3978 23.6574V23.6712Z" fill="#BA0019"/>
<path d="M34.2291 26.7665L33.5439 25.7301C33.7723 25.4537 34.2022 25.9236 34.2022 25.9236C34.2022 25.9236 34.4306 24.7352 35.4247 24.2239C36.4053 24.7213 36.6471 25.9236 36.6471 25.9236C36.6471 25.9236 37.077 25.4537 37.3054 25.7301L36.6203 26.7665H34.2559H34.2291Z" fill="white"/>
<path d="M36.6335 26.8494H34.2289L33.4766 25.7716C33.6646 25.3155 33.987 25.6472 34.1482 25.7716C34.2423 25.4399 34.5513 24.5693 35.3707 24.1548C36.2573 24.5693 36.5663 25.4537 36.6603 25.7716C36.8216 25.6334 37.1574 25.4675 37.332 25.6748L36.62 26.8356L36.6335 26.8494ZM33.7184 25.7301C33.7184 25.7301 33.6243 25.7439 33.5975 25.7854L34.296 26.7388L36.5663 26.7112L37.2246 25.7163C37.2246 25.7163 37.1708 25.7301 37.1171 25.7301C36.9559 25.7301 36.7544 25.9097 36.6872 25.9788L36.5932 26.0894L36.5663 25.9512C36.5663 25.9512 36.3245 24.7904 35.3842 24.3068C34.511 24.7904 34.2692 25.9374 34.2692 25.9512L34.2423 26.0894L34.1482 25.9788C34.0811 25.9097 33.8796 25.7301 33.7184 25.7301Z" fill="#BA0019"/>
<path d="M34.2291 28.0377L33.5439 27.0013C33.7723 26.7388 34.2022 27.1948 34.2022 27.1948C34.2022 27.1948 34.4306 26.0064 35.4247 25.4951C36.4053 25.9926 36.6471 27.1948 36.6471 27.1948C36.6471 27.1948 37.077 26.7388 37.3054 27.0013L36.6203 28.0377H34.2559H34.2291Z" fill="white"/>
<path d="M36.6335 28.1206H34.2289L33.4766 27.0428C33.6646 26.5868 33.987 26.9184 34.1482 27.0428C34.2423 26.7111 34.5513 25.8406 35.3707 25.426C36.2573 25.8406 36.5663 26.7111 36.6603 27.0428C36.8216 26.9046 37.1574 26.7388 37.332 26.9461L36.62 28.1068L36.6335 28.1206ZM33.7184 27.0013C33.7184 27.0013 33.6243 27.0152 33.5975 27.0566L34.296 28.0101L36.5663 27.9825L37.2246 26.9875C37.2246 26.9875 37.1574 27.0013 37.1171 27.0013C36.9559 27.0013 36.7544 27.181 36.6872 27.2501L36.5932 27.3606L36.5663 27.2224C36.5663 27.2224 36.3245 26.0617 35.3842 25.578C34.511 26.0617 34.2692 27.2086 34.2692 27.2224L34.2423 27.3606L34.1482 27.2501C34.0811 27.181 33.8796 27.0013 33.7184 27.0013Z" fill="#BA0019"/>
<path d="M34.2027 29.9447L34.1758 28.8807C34.1758 28.8807 34.4042 27.3883 35.4251 26.7665C36.4326 27.3883 36.6744 28.8807 36.6744 28.8807L36.6341 29.9447H34.2027Z" fill="white"/>
<path d="M36.7009 30.0276H34.2022L34.0947 28.8945C34.0947 28.8116 34.35 27.3468 35.3844 26.7112C36.4859 27.3468 36.7277 28.8116 36.7412 28.8807L36.7009 30.0276ZM35.3709 26.8494C34.4709 27.4436 34.2291 28.8945 34.2291 28.9083L34.2694 29.9447L36.5531 29.8756L36.58 28.8945C36.58 28.8945 36.3381 27.4436 35.3709 26.8494Z" fill="#BA0019"/>
<path d="M34.2291 29.9447L33.5439 29.1708C33.7723 28.9636 34.2022 29.309 34.2022 29.309C34.2022 29.309 34.4306 28.4108 35.4247 28.0377C36.4053 28.4108 36.6471 29.309 36.6471 29.309C36.6471 29.309 37.077 28.9636 37.3054 29.1708L36.6203 29.9447H34.2559H34.2291Z" fill="white"/>
<path d="M36.6337 30.0277H34.2291L33.4902 29.2262C33.5574 29.0604 33.638 29.0328 33.7186 29.0328C33.8798 29.0328 34.0544 29.1295 34.1619 29.1986C34.256 28.9498 34.5649 28.2866 35.3978 27.9825C36.2576 28.3004 36.58 28.9498 36.674 29.1986C36.8218 29.1018 37.1576 28.9637 37.3457 29.1157L36.6471 30.0277H36.6337ZM33.7186 29.1848C33.7186 29.1848 33.6246 29.1986 33.5843 29.2262L34.2828 29.8895L36.5665 29.8619L37.1845 29.1709C37.1845 29.1709 37.1442 29.1709 37.1173 29.1709C36.9158 29.1709 36.6874 29.3644 36.6874 29.3644L36.5934 29.4335L36.5665 29.3229C36.5665 29.3229 36.3247 28.4662 35.3978 28.1069C34.5112 28.4662 34.2828 29.3229 34.2828 29.3229L34.2559 29.4335L34.1619 29.3644C34.1619 29.3644 33.9201 29.1709 33.732 29.1709L33.7186 29.1848Z" fill="#BA0019"/>
<path d="M45.7552 28.245H54.2319C54.6483 28.245 54.9841 28.5905 54.9841 29.0188C54.9841 29.4472 54.6483 29.7927 54.2319 29.7927H45.7552C45.3388 29.7927 45.0029 29.4472 45.0029 29.0188C45.0029 28.5905 45.3388 28.245 45.7552 28.245Z" fill="white"/>
<path d="M54.245 29.8756H45.7684C45.3117 29.8756 44.9355 29.4887 44.9355 29.0189C44.9355 28.549 45.3117 28.1621 45.7684 28.1621H54.245C54.7018 28.1621 55.0779 28.549 55.0779 29.0189C55.0779 29.4887 54.7018 29.8756 54.245 29.8756ZM45.7684 28.3141C45.3923 28.3141 45.0833 28.6319 45.0833 29.0189C45.0833 29.4058 45.3923 29.7236 45.7684 29.7236H54.245C54.6212 29.7236 54.9302 29.4058 54.9302 29.0189C54.9302 28.6319 54.6212 28.3141 54.245 28.3141H45.7684Z" fill="#BA0019"/>
<path d="M55.1447 29.1571L55.2119 24.0166C55.2119 24.0166 55.0238 25.2741 54.4461 25.2741H45.5799C45.0023 25.2741 44.8008 24.0166 44.8008 24.0166L44.868 29.1571H55.1581H55.1447Z" fill="white"/>
<path d="M55.2124 29.24H44.855L44.7207 24.0166H44.8685C44.9222 24.3344 45.1506 25.205 45.567 25.205H54.4332C54.8631 25.205 55.078 24.3345 55.1318 24.0028H55.2795L55.2124 29.24ZM44.8685 24.6246L44.9222 29.1571L55.0646 29.088L55.1183 24.6246C54.9974 24.9839 54.7691 25.357 54.4332 25.357H45.567C45.2177 25.357 45.0028 24.9839 44.8819 24.6246H44.8685Z" fill="#BA0019"/>
<path d="M53.1844 26.8217V25.1497C53.1844 25.1497 54.3129 24.8456 54.1517 24.4035C54.0039 23.9613 52.6605 24.9562 52.6605 24.9562H47.3274C47.3274 24.9562 45.9975 23.9613 45.8362 24.4035C45.675 24.8456 46.79 25.1497 46.79 25.1497V26.8217H53.171H53.1844Z" fill="white"/>
<path d="M53.2514 26.9047H46.8167L46.7226 25.1497C46.7226 25.1497 45.9704 24.9839 45.7957 24.6385C45.7554 24.5555 45.742 24.4588 45.7689 24.3759C45.7957 24.3206 45.8495 24.2101 46.0241 24.2101C46.454 24.2101 47.3406 24.8596 47.3675 24.8872H52.6469C52.6469 24.8872 53.5201 24.2101 53.9499 24.2101C54.1246 24.2101 54.1783 24.3068 54.2052 24.3759C54.232 24.4588 54.232 24.5555 54.1783 24.6385C54.0037 24.9839 53.2245 25.205 53.1977 25.2188L53.238 26.8218V26.8909L53.2514 26.9047ZM46.0241 24.3621C45.9435 24.3621 45.9166 24.3897 45.9166 24.4174C45.9032 24.4726 45.9166 24.5141 45.9166 24.5694C46.0375 24.8181 46.6018 25.0116 46.8033 25.0668L46.8839 26.8218L53.0902 26.7527V25.1497C53.3723 25.0254 53.9231 24.8181 54.0574 24.5694C54.0843 24.5141 54.0843 24.4726 54.0574 24.4174C54.0574 24.3897 54.0305 24.3621 53.9365 24.3621C53.6275 24.3621 52.9156 24.8319 52.6737 25.0116H47.3003C47.0182 24.8319 46.3196 24.3621 45.9972 24.3621H46.0241Z" fill="#BA0019"/>
<path d="M53.8143 28.2726L53.8412 26.4901C53.8412 26.4901 55.1711 26.2828 54.983 25.8406C54.795 25.3984 53.1964 26.3933 53.1964 26.3933H46.802C46.802 26.3933 45.2034 25.3984 45.0153 25.8406C44.8272 26.2828 46.1571 26.4901 46.1571 26.4901L46.184 28.2726H53.8143Z" fill="white"/>
<path d="M53.8818 28.3556H46.1843L46.0903 26.5039C46.0903 26.5039 45.1499 26.4072 44.9619 26.0755C44.9216 25.9926 44.9216 25.9097 44.9619 25.8268C44.9887 25.7577 45.0693 25.6748 45.244 25.6748C45.741 25.6748 46.8023 26.3243 46.8426 26.3519H53.1967C53.1967 26.3519 54.258 25.6748 54.755 25.6748C54.9431 25.6748 55.0102 25.7577 55.0371 25.8268C55.0774 25.9097 55.064 25.9926 55.0371 26.0755C54.849 26.421 53.949 26.573 53.8415 26.5868L53.8818 28.2865V28.3556ZM45.2305 25.813C45.1096 25.813 45.0828 25.8683 45.0693 25.8821C45.2037 26.2275 45.9022 26.3796 46.1575 26.421L46.2515 28.2727L53.734 28.2036L53.7609 26.5039C54.0833 26.3934 54.7819 26.2275 54.9028 25.9926C54.9028 25.3984 53.237 26.4625 53.2236 26.4763H46.7888C46.7888 26.4763 45.6873 25.8268 45.2305 25.8268V25.813Z" fill="#BA0019"/>
<path d="M50.9279 19.2077V18.503C50.1482 18.503 50.3499 17.7292 50.3499 17.439C50.5784 17.1488 50.6456 16.5684 50.0003 16.2644C49.3685 16.596 49.4223 17.135 49.6508 17.4113C49.6508 17.7292 49.9063 18.503 49.0459 18.503V19.2077H50.9279Z" fill="white"/>
<path d="M50.9957 19.2906H49.0465L48.9658 18.503C49.2481 18.4201 49.4094 18.3786 49.5035 18.2681C49.638 18.1022 49.6111 17.8259 49.5842 17.6048C49.5842 17.5357 49.5708 17.4666 49.5708 17.4113C49.4498 17.287 49.3825 17.052 49.4229 16.8448C49.4632 16.6651 49.5842 16.4026 49.9606 16.2091C50.3908 16.3749 50.5117 16.6237 50.5655 16.8033C50.6193 17.0382 50.5655 17.3008 50.4042 17.4942C50.4042 17.4942 50.4042 17.5495 50.4042 17.6048C50.3908 17.8259 50.3639 18.1161 50.5118 18.2957C50.5924 18.3924 50.7403 18.4339 50.9285 18.4339L50.9957 19.2215V19.2906ZM49.9606 16.3473C49.7724 16.4855 49.6111 16.6651 49.5708 16.8724C49.5304 17.0382 49.5842 17.2317 49.7052 17.3699C49.7186 17.4666 49.7321 17.5357 49.7455 17.6048C49.7724 17.8397 49.8127 18.1713 49.6245 18.3786C49.5035 18.5168 49.3153 18.5859 49.0599 18.5859L49.1406 19.2215L50.8613 19.1525V18.5168C50.7134 18.5859 50.5386 18.5168 50.4176 18.4063C50.2294 18.1852 50.2563 17.8397 50.2698 17.6048V17.4528C50.3908 17.287 50.4714 17.0659 50.4311 16.8448C50.3773 16.6375 50.2295 16.4717 49.974 16.3611L49.9606 16.3473Z" fill="#BA0019"/>
<path d="M52.2432 23.8231V22.4689C52.2432 22.4689 53.0358 22.1926 52.9283 21.8333C52.8208 21.474 51.8805 22.2893 51.8805 22.2893H48.1056C48.1056 22.2893 47.1653 21.474 47.0444 21.8333C46.9369 22.1926 47.716 22.4689 47.716 22.4689V23.8231H52.2297H52.2432Z" fill="white"/>
<path d="M52.324 23.9061H47.7431L47.6491 22.469C47.6491 22.469 46.8565 22.234 46.9774 21.8195C47.0043 21.7228 47.0714 21.6675 47.1789 21.6675C47.4879 21.6675 48.079 22.1788 48.1461 22.234H51.8807C51.8807 22.234 52.4986 21.6675 52.8076 21.6675C52.9151 21.6675 52.9822 21.7228 53.0091 21.8195C53.13 22.234 52.3777 22.5104 52.2837 22.538L52.324 23.8232V23.8923V23.9061ZM47.1923 21.8333C47.058 22.1097 47.5685 22.3446 47.7565 22.4137L47.8237 23.837L52.1762 23.7679V22.4828C52.418 22.3446 52.9419 22.1097 52.8613 21.8748C52.5927 21.8195 52.0956 22.2202 51.921 22.3584H48.0924C47.8774 22.2064 47.3804 21.8333 47.1655 21.8333H47.1923Z" fill="#BA0019"/>
<path d="M52.6997 25.0115V23.5605C52.6997 23.5605 53.6535 23.3947 53.5326 23.0354C53.3983 22.6761 52.2698 23.4914 52.2698 23.4914H47.7427C47.7427 23.4914 46.6143 22.6761 46.4799 23.0354C46.3456 23.3947 47.286 23.5605 47.286 23.5605V25.0115H52.6997Z" fill="white"/>
<path d="M52.7676 25.0944H47.2867L47.1927 23.5606C47.1927 23.5606 46.5613 23.5053 46.4001 23.2289C46.3598 23.1598 46.3463 23.0769 46.3866 23.0078C46.4001 22.9525 46.4538 22.8696 46.615 22.8696C46.9777 22.8696 47.73 23.4086 47.7569 23.4362H52.2437C52.2437 23.4362 52.9826 22.8696 53.3587 22.8696C53.5065 22.8696 53.5602 22.9525 53.5871 23.0078C53.6139 23.0907 53.6139 23.1598 53.5736 23.2289C53.4259 23.5053 52.7945 23.6158 52.7273 23.6296L52.7676 25.0115V25.0806V25.0944ZM46.615 23.0216L46.5344 23.1598C46.6284 23.3256 47.0449 23.45 47.2867 23.4915L47.3673 25.0253L52.6198 24.9562V23.5744C52.8751 23.4638 53.3453 23.3533 53.4393 23.1736L53.3587 23.0355C53.09 23.0355 52.499 23.4224 52.2974 23.5606H47.73C47.4882 23.4086 46.8837 23.0355 46.6284 23.0355L46.615 23.0216Z" fill="#BA0019"/>
<path d="M51.4512 21.6674V20.783C51.4512 20.783 51.9616 20.5619 51.8945 20.327C51.8273 20.0783 51.2094 20.631 51.2094 20.631H48.7644C48.7644 20.631 48.1599 20.0783 48.0793 20.327C48.0122 20.5758 48.5226 20.783 48.5226 20.783V21.6674H51.4512Z" fill="white"/>
<path d="M51.5314 21.7366H48.5491L48.4685 20.7693C48.4685 20.7693 47.9446 20.5896 48.0386 20.2856V20.2303L48.1998 20.1613C48.4013 20.1613 48.7775 20.4929 48.8446 20.5482H51.2358C51.2358 20.5482 51.6254 20.1613 51.8404 20.1613H51.8941L52.0016 20.2718C52.0822 20.5758 51.5851 20.7969 51.5179 20.8245L51.5582 21.6398V21.7089L51.5314 21.7366ZM48.1864 20.3271C48.1327 20.4653 48.4148 20.6449 48.5626 20.7002L48.6163 21.6537L51.3836 21.5846V20.7693C51.5851 20.6449 51.8672 20.4653 51.8269 20.3271C51.7597 20.3409 51.4239 20.5205 51.2627 20.6725H48.7775C48.5625 20.5205 48.2939 20.3271 48.1864 20.3271Z" fill="#BA0019"/>
<path d="M51.7465 22.4689V21.5846C51.7465 21.5846 52.3644 21.3635 52.2838 21.1285C52.2032 20.8798 51.4644 21.4325 51.4644 21.4325H48.5358C48.5358 21.4325 47.8104 20.8798 47.7164 21.1285C47.6358 21.3773 48.2403 21.5846 48.2403 21.5846V22.4689H51.7465Z" fill="white"/>
<path d="M51.8265 22.5518H48.2532L48.1726 21.5845C48.1726 21.5845 47.7696 21.4877 47.6621 21.2666V21.239V21.087C47.6755 21.0455 47.7158 20.9764 47.8367 20.9764C48.0785 20.9764 48.5487 21.3219 48.589 21.3634H51.4773C51.4773 21.3634 51.9474 20.9764 52.1892 20.9764H52.243L52.3639 21.087C52.3639 21.087 52.3773 21.2114 52.3639 21.2666C52.2564 21.4877 51.8534 21.6259 51.7997 21.6535L51.84 22.4688V22.5379L51.8265 22.5518ZM47.8233 21.1423C47.8502 21.3357 48.1188 21.4601 48.2666 21.5154L48.3338 22.4688L51.6788 22.3997V21.5845C51.8937 21.4601 52.1489 21.3357 52.2161 21.2114C52.0415 21.1423 51.7056 21.3634 51.5176 21.5015H48.5487C48.3203 21.3634 47.9845 21.1423 47.8367 21.1423H47.8233Z" fill="#BA0019"/>
<path d="M51.0346 20.0922V19.2907C51.0346 19.2907 51.3973 19.0972 51.357 18.89C51.3032 18.6965 50.8734 19.1387 50.8734 19.1387H49.1404C49.1404 19.1387 48.7105 18.6827 48.6568 18.89C48.6031 19.0834 48.9658 19.2907 48.9658 19.2907V19.9954L51.0346 20.0922Z" fill="white"/>
<path d="M51.1009 20.175L48.965 20.0783L48.8844 19.2906C48.8844 19.2906 48.5082 19.1248 48.5754 18.8761V18.8208L48.7098 18.7655C48.8575 18.7655 49.1128 19.0142 49.1934 19.0971L50.8726 19.0695C50.8726 19.0695 51.1412 18.7655 51.3024 18.7655H51.3562L51.4368 18.8761C51.4905 19.1248 51.1278 19.3321 51.0875 19.3597L51.1144 20.1059V20.1888L51.1009 20.175ZM48.7098 18.9175C48.6963 19.0142 48.8978 19.1662 48.9919 19.2215L49.0456 19.9954L50.9666 20.023V19.2906C51.1144 19.1662 51.3159 19.0281 51.289 18.9175C51.2353 18.9175 51.0606 19.0695 50.9263 19.2077L49.1396 19.2353C48.965 19.0833 48.7769 18.9313 48.7232 18.9313L48.7098 18.9175Z" fill="#BA0019"/>
<path d="M51.2364 20.6587V19.9539C51.2364 19.9539 51.6797 19.7604 51.6125 19.5532C51.5588 19.3597 51.0349 19.8019 51.0349 19.8019H48.9661C48.9661 19.8019 48.4422 19.3459 48.3884 19.5532C48.3347 19.7604 48.7646 19.9539 48.7646 19.9539V20.6587H51.2498H51.2364Z" fill="white"/>
<path d="M51.3024 20.7278H48.75L48.6694 19.9401C48.6694 19.9401 48.2261 19.7743 48.3067 19.5256V19.4703L48.4544 19.415C48.6291 19.415 48.9515 19.6776 49.0052 19.7329H51.0337C51.0337 19.7329 51.3695 19.415 51.5442 19.415H51.5979L51.692 19.5256C51.7726 19.7743 51.3561 19.9816 51.2755 20.0092L51.3158 20.6449V20.714L51.3024 20.7278ZM48.4544 19.567C48.4276 19.65 48.6291 19.802 48.7903 19.8711L48.844 20.6449L51.168 20.5758V19.9401C51.383 19.802 51.5845 19.6638 51.5442 19.567C51.4501 19.567 51.2218 19.7329 51.0874 19.8572H48.9649C48.7769 19.7329 48.5485 19.567 48.4544 19.567Z" fill="#BA0019"/>
<path d="M49.342 20.7002L48.9521 20.258C49.0731 20.1474 49.3151 20.3409 49.3151 20.3409C49.3151 20.3409 49.4495 19.8296 49.9873 19.6085C50.5384 19.8158 50.6594 20.3409 50.6594 20.3409C50.6594 20.3409 50.9014 20.1474 51.0224 20.258L50.6325 20.7002H49.3151H49.342Z" fill="white"/>
<path d="M50.6865 20.7693H49.3422L48.791 20.1751L49.0599 20.1336C49.1405 20.1336 49.2346 20.1751 49.2884 20.2165C49.3556 20.0507 49.5438 19.7053 49.974 19.5394C50.4445 19.7053 50.6461 20.0507 50.7134 20.2165C50.7671 20.1751 50.8612 20.1336 50.9419 20.1336L51.0898 20.1889L50.6865 20.7693ZM49.0599 20.2856L49.3959 20.6449L50.6193 20.6173L50.9822 20.1889C50.8612 20.2856 50.7537 20.3547 50.7134 20.3824L50.6193 20.4515L50.5924 20.3409C50.5924 20.3409 50.4714 19.8573 49.9606 19.6638C49.5035 19.8573 49.3825 20.3133 49.3825 20.3409L49.3556 20.4515L49.2615 20.3824C49.2615 20.3824 49.1271 20.2856 49.0464 20.2856H49.0599Z" fill="#BA0019"/>
<path d="M49.0735 21.4187L48.5361 20.9765C48.7108 20.8659 49.0466 21.0594 49.0466 21.0594C49.0466 21.0594 49.2213 20.5481 49.987 20.3408C50.7527 20.5481 50.9273 21.0594 50.9273 21.0594C50.9273 21.0594 51.2632 20.8659 51.4378 20.9765L50.9004 21.4187H49.06H49.0735Z" fill="white"/>
<path d="M50.94 21.5016H49.0728L48.4951 21.0317C48.5489 20.8797 48.616 20.8659 48.6832 20.8659C48.8444 20.8659 49.019 20.9488 49.0728 20.9903C49.0459 20.9074 49.2743 20.4652 49.9863 20.2717C50.6848 20.4514 50.94 20.8659 50.9938 21.0041C51.0341 20.9212 51.343 20.8383 51.4908 20.9212L50.94 21.5016ZM48.6966 21.0179L49.1131 21.3634H50.8863L51.2759 21.0179C51.1281 21.0179 50.9669 21.1285 50.9669 21.1285C50.8594 21.0732 50.6848 20.6034 49.9594 20.4099C49.2743 20.6034 49.1131 21.0732 49.0996 21.087C48.9922 21.1285 48.831 21.0317 48.6832 21.0179H48.6966Z" fill="#BA0019"/>
<path d="M48.9529 22.69L48.335 22.0958C48.5365 21.9438 48.926 22.2063 48.926 22.2063C48.926 22.2063 49.1275 21.5292 50.0142 21.239C50.8874 21.5292 51.1023 22.2063 51.1023 22.2063C51.1023 22.2063 51.4784 21.9438 51.6934 22.0958L51.0754 22.69H48.9663H48.9529Z" fill="white"/>
<path d="M51.0745 22.7591H48.9385L48.2803 22.1511C48.334 21.9991 48.4146 21.9714 48.4952 21.9714C48.6833 21.9714 48.8848 22.0958 48.9385 22.1234C48.8982 22.0267 49.1535 21.4325 49.9729 21.1561C50.7789 21.4049 51.061 21.9576 51.1282 22.1234C51.1819 22.0267 51.5312 21.9023 51.7059 22.0267L51.0745 22.7591ZM48.4818 22.1234C48.4818 22.1234 48.4012 22.1234 48.3609 22.1511L48.9788 22.6347H51.0073L51.5178 22.1234C51.3969 22.1234 51.1685 22.2202 51.1148 22.2754C51.0073 22.234 50.7924 21.5845 49.9729 21.3219C49.1938 21.5845 48.9788 22.234 48.9788 22.234C48.8714 22.2754 48.6564 22.1234 48.4818 22.1234Z" fill="#BA0019"/>
<path d="M48.6837 24.2515L47.918 23.5053C48.1732 23.3119 48.6434 23.6435 48.6434 23.6435C48.6434 23.6435 48.8986 22.7868 50.0002 22.4275C51.1017 22.7868 51.357 23.6435 51.357 23.6435C51.357 23.6435 51.8272 23.3119 52.0824 23.5053L51.3167 24.2515H48.6837Z" fill="white"/>
<path d="M51.3436 24.3206H48.6837L47.8643 23.5606C47.9314 23.3948 48.0255 23.3671 48.1195 23.3671C48.3613 23.3671 48.6165 23.533 48.6837 23.5744C48.6434 23.4777 48.939 22.7039 49.9868 22.3584C51.0077 22.6762 51.3436 23.381 51.4107 23.5744C51.4645 23.4639 51.9212 23.2842 52.1361 23.4501L51.357 24.3344L51.3436 24.3206ZM48.1195 23.5192C48.1195 23.5192 47.9986 23.533 47.9583 23.5606L48.7374 24.1824H51.2898L51.9615 23.5053C51.9347 23.5053 51.9078 23.5053 51.8809 23.5053C51.6526 23.5053 51.3973 23.685 51.3839 23.685C51.263 23.6297 51.0077 22.8282 49.9733 22.4828C48.9658 22.8282 48.7106 23.6297 48.7106 23.6435C48.5897 23.6712 48.321 23.4915 48.1061 23.4915L48.1195 23.5192Z" fill="#BA0019"/>
<path d="M48.4951 25.5366L49.9594 27.4021L51.5043 25.5366H48.4951Z" fill="white"/>
<path d="M49.9597 27.5265L48.3477 25.4537H51.6658L49.9597 27.5265ZM48.6566 25.6057L49.9597 27.2778L51.3434 25.6057H48.6432H48.6566Z" fill="#BA0019"/>
<path d="M48.4152 25.7438L47.4883 24.9147C47.7973 24.7075 48.3615 25.0667 48.3615 25.0667C48.3615 25.0667 48.6704 24.1133 49.9869 23.7125C51.3034 24.1133 51.6124 25.0667 51.6124 25.0667C51.6124 25.0667 52.1766 24.6936 52.4856 24.9147L51.5587 25.7438H48.4018H48.4152Z" fill="white"/>
<path d="M51.6119 25.8129H48.4282L47.4609 24.97C47.5415 24.8042 47.6356 24.7766 47.7431 24.7766C48.0252 24.7766 48.3476 24.9562 48.4147 24.9976C48.361 24.9147 48.7237 24.0304 49.9865 23.6434C51.2358 24.0027 51.6119 24.818 51.6925 24.9976C51.7328 24.8871 52.2971 24.6522 52.5523 24.8456L51.6254 25.8129H51.6119ZM47.7431 24.9147C47.6625 24.9147 47.5953 24.9286 47.5415 24.97L48.4685 25.6748H51.5448L52.3777 24.9009C52.3508 24.9009 52.3105 24.9009 52.2568 24.9009C51.9881 24.9009 51.6657 25.1082 51.6522 25.1082C51.5448 25.0529 51.2358 24.1547 49.973 23.7678C48.7506 24.1547 48.4416 25.0529 48.4416 25.0667C48.3207 25.1082 47.9983 24.9009 47.7296 24.9009L47.7431 24.9147Z" fill="#BA0019"/>
<path d="M48.374 27.5956L49.9458 29.9447L51.625 27.5956H48.374Z" fill="white"/>
<path d="M49.9461 30.0691L48.2266 27.5127H51.773L49.9461 30.0691ZM48.5087 27.6647L49.9595 29.8066L51.4909 27.6647H48.5221H48.5087Z" fill="#BA0019"/>
<path d="M48.2939 27.8582L47.2998 26.8218C47.6356 26.5592 48.2536 27.0152 48.2536 27.0152C48.2536 27.0152 48.5894 25.8268 50.0134 25.3156C51.4374 25.813 51.7732 27.0152 51.7732 27.0152C51.7732 27.0152 52.3911 26.5592 52.727 26.8218L51.7329 27.8582H48.3073H48.2939Z" fill="white"/>
<path d="M51.7464 27.9273H48.2939L47.2461 26.8632C47.3401 26.6836 47.4342 26.6559 47.5551 26.6559C47.8103 26.6559 48.079 26.808 48.2133 26.8909C48.3208 26.5869 48.7641 25.6748 49.9866 25.2465C51.2493 25.6748 51.6926 26.5869 51.8001 26.8909C52.0016 26.7665 52.4987 26.5454 52.7539 26.7527L51.7464 27.9273ZM47.5551 26.808C47.4745 26.808 47.3939 26.8356 47.3401 26.877L48.3477 27.8029L51.6926 27.7752L52.6464 26.7803C52.6464 26.7803 52.539 26.7941 52.4584 26.7941C52.1628 26.7941 51.8135 27.0567 51.8135 27.0567L51.7329 27.1258L51.7061 27.029C51.7061 27.029 51.3568 25.8683 50 25.3846C48.6835 25.8683 48.3342 27.0152 48.3342 27.029L48.3074 27.1258L48.2268 27.0567C48.2268 27.0567 47.864 26.7941 47.5819 26.7941L47.5551 26.808Z" fill="#BA0019"/>
<path d="M48.2939 29.9447L47.2998 28.9083C47.6356 28.6458 48.2536 29.1018 48.2536 29.1018C48.2536 29.1018 48.5894 27.9134 50.0134 27.4021C51.4374 27.8996 51.7732 29.1018 51.7732 29.1018C51.7732 29.1018 52.3911 28.6458 52.727 28.9083L51.7329 29.9447H48.3073H48.2939Z" fill="white"/>
<path d="M51.7464 30.0276H48.2939L47.2461 28.9636C47.3401 28.7839 47.4342 28.7563 47.5551 28.7563C47.8103 28.7563 48.079 28.9083 48.2133 28.9912C48.3208 28.6872 48.7641 27.7752 49.9866 27.3468C51.2493 27.7752 51.6926 28.701 51.8001 28.9912C52.0016 28.8668 52.4987 28.6457 52.7539 28.853L51.7464 30.0276ZM47.5551 28.9083C47.4745 28.9083 47.3939 28.9359 47.3401 28.9774L48.3477 29.9032L51.6926 29.8756L52.6464 28.8807C52.6464 28.8807 52.539 28.9083 52.4584 28.9083C52.1628 28.9083 51.8135 29.1708 51.8135 29.1708L51.7329 29.2399L51.7061 29.1294C51.7061 29.1294 51.3568 27.9686 50 27.485C48.6701 27.9686 48.3342 29.1156 48.3342 29.1294L48.3074 29.2399L48.2268 29.1708C48.2268 29.1708 47.8775 28.9083 47.5819 28.9083H47.5551Z" fill="#BA0019"/>
<path d="M40.5431 32.8328H39.8037V36.0939H40.5431V32.8328Z" fill="white"/>
<path d="M40.6109 36.1769H39.8043L39.7236 32.8328L40.5302 32.7499L40.5974 36.1631L40.6109 36.1769ZM40.463 32.8328L39.8043 32.9157L39.8715 36.1078L40.463 36.0387V32.8466V32.8328Z" fill="#BA0019"/>
<path d="M43.0421 32.8328H42.3027V36.0939H43.0421V32.8328Z" fill="white"/>
<path d="M43.1092 36.1768H42.3026L42.2354 32.8328L43.0419 32.7637L43.1226 36.1768H43.1092ZM42.9613 32.8328L42.3026 32.9157L42.3832 36.1078L42.9747 36.0387V32.8466L42.9613 32.8328Z" fill="#BA0019"/>
<path d="M41.8595 32.8328H41.1201V36.0939H41.8595V32.8328Z" fill="white"/>
<path d="M41.9402 36.1768H41.1336L41.0664 32.8328L41.873 32.7637L41.9536 36.1768H41.9402ZM41.7923 32.8328L41.1336 32.9157L41.2143 36.1078L41.8058 36.0387V32.8466L41.7923 32.8328Z" fill="#BA0019"/>
<path d="M55.213 32.8328H54.4736V36.0939H55.213V32.8328Z" fill="white"/>
<path d="M55.2808 36.1768H54.4742L54.3936 32.8328L55.2001 32.7637L55.2673 36.1768H55.2808ZM55.1329 32.8328L54.4742 32.9157L54.5414 36.1078L55.1329 36.0387V32.8466V32.8328Z" fill="#BA0019"/>
<path d="M60.2101 32.8328H59.4707V36.0939H60.2101V32.8328Z" fill="white"/>
<path d="M60.2908 36.1768H59.4842L59.417 32.8328L60.2236 32.7637L60.3042 36.1768H60.2908ZM60.1429 32.8328L59.4842 32.9157L59.5649 36.1078L60.1563 36.0387V32.8466L60.1429 32.8328Z" fill="#BA0019"/>
<path d="M57.711 32.8328H56.9717V36.0939H57.711V32.8328Z" fill="white"/>
<path d="M57.7918 36.1768H56.9852L56.918 32.8328L57.7245 32.7637L57.8052 36.1768H57.7918ZM57.6439 32.8328L56.9852 32.9157L57.0658 36.1078L57.6573 36.0387V32.8466L57.6439 32.8328Z" fill="#BA0019"/>
<path d="M56.5431 32.8328H55.8037V36.0939H56.5431V32.8328Z" fill="white"/>
<path d="M56.6101 36.1768H55.8035L55.7363 32.8328L56.5429 32.7637L56.6236 36.1768H56.6101ZM56.4622 32.8328L55.8035 32.9157L55.8842 36.1078L56.4757 36.0387V32.8466L56.4622 32.8328Z" fill="#BA0019"/>
<path d="M58.8937 32.8328H58.1543V36.0939H58.8937V32.8328Z" fill="white"/>
<path d="M58.9614 36.1768H58.1549L58.0742 32.8328L58.8808 32.7637L58.948 36.1768H58.9614ZM58.8136 32.8328L58.1549 32.9157L58.2221 36.1078L58.8136 36.0387V32.8466V32.8328Z" fill="#BA0019"/>
<path d="M45.5402 32.8328H44.8008V36.0939H45.5402V32.8328Z" fill="white"/>
<path d="M45.6072 36.1768H44.8006L44.7334 32.8328L45.54 32.7637L45.6206 36.1768H45.6072ZM45.4593 32.8328L44.8006 32.9157L44.8813 36.1078L45.4728 36.0387V32.8466L45.4593 32.8328Z" fill="#BA0019"/>
<path d="M44.2237 32.8328H43.4844V36.0939H44.2237V32.8328Z" fill="white"/>
<path d="M44.2915 36.1768H43.485L43.4043 32.8328L44.2109 32.7637L44.2781 36.1768H44.2915ZM44.1437 32.8328L43.485 32.9157L43.5522 36.1078L44.1437 36.0387V32.8466V32.8328Z" fill="#BA0019"/>
<path d="M50.7669 17.9226H49.2344V18.5168H50.7669V17.9226Z" fill="white"/>
<path d="M50.8349 18.5997H49.2352L49.168 17.9226L50.7677 17.8397L50.8483 18.5859L50.8349 18.5997ZM50.687 17.9226L49.2352 18.0055L49.3158 18.5306L50.7005 18.4616V17.9365L50.687 17.9226Z" fill="#BA0019"/>
<path d="M50.5657 17.3423H49.4365V17.9088H50.5657V17.3423Z" fill="white"/>
<path d="M50.6326 17.9917H49.4361L49.3555 17.3422L50.5519 17.2593L50.6191 17.9778L50.6326 17.9917ZM50.4847 17.3422L49.4361 17.4251L49.5033 17.9226L50.4847 17.8535V17.356V17.3422Z" fill="#BA0019"/>
</svg>
