<svg width="100" height="61" viewBox="0 0 100 61" fill="none" xmlns="http://www.w3.org/2000/svg">
<path d="M100 0H0V61H100V0Z" fill="white"/>
<path d="M66.2372 10.1486L64.2129 11.5593L67.9236 17.3825L69.9479 15.9718L66.2372 10.1486Z" fill="black"/>
<path d="M70.5865 16.9931L68.5625 18.4042L72.2668 24.2151L74.2908 22.8039L70.5865 16.9931Z" fill="black"/>
<path d="M69.1832 7.90332L67.1602 9.31378L75.2526 22.0084L77.2757 20.5979L69.1832 7.90332Z" fill="black"/>
<path d="M72.1749 5.71947L70.1514 7.13135L73.8576 12.9408L75.8811 11.529L72.1749 5.71947Z" fill="black"/>
<path d="M76.6776 12.7733L74.6533 14.1841L78.3641 20.0073L80.3883 18.5965L76.6776 12.7733Z" fill="black"/>
<path d="M27.8036 36.937L25.7803 38.347L33.8706 51.0431L35.8939 49.6331L27.8036 36.937Z" fill="black"/>
<path d="M24.6849 38.9074L22.6611 40.3189L26.3664 46.1291L28.3901 44.7176L24.6849 38.9074Z" fill="black"/>
<path d="M29.058 45.7765L27.0342 47.188L30.7469 53.0099L32.7707 51.5983L29.058 45.7765Z" fill="black"/>
<path d="M21.742 41.1676L19.7188 42.5777L27.8091 55.2738L29.8324 53.8637L21.742 41.1676Z" fill="black"/>
<path d="M33.8409 10.0785L25.7559 22.7614L27.779 24.1719L35.864 11.489L33.8409 10.0785Z" fill="black"/>
<path d="M30.8093 7.95713L22.7168 20.6517L24.7399 22.0622L32.8324 9.36764L30.8093 7.95713Z" fill="black"/>
<path d="M27.7741 5.83982L19.6816 18.5344L21.7048 19.9449L29.7972 7.25033L27.7741 5.83982Z" fill="black"/>
<path d="M67.92 43.7689L64.2148 49.579L66.2387 50.9906L69.9439 45.1805L67.92 43.7689Z" fill="black"/>
<path d="M72.1766 36.7856L68.4658 42.6089L70.4902 44.0197L74.201 38.1964L72.1766 36.7856Z" fill="black"/>
<path d="M70.9794 45.8814L67.2666 51.7034L69.2905 53.115L73.0032 47.293L70.9794 45.8814Z" fill="black"/>
<path d="M75.3518 39.0298L71.6465 44.8401L73.6703 46.2516L77.3756 40.4414L75.3518 39.0298Z" fill="black"/>
<path d="M73.8641 47.9133L70.1533 53.7366L72.1777 55.1475L75.8885 49.3241L73.8641 47.9133Z" fill="black"/>
<path d="M78.3826 41.1081L74.6699 46.9299L76.6938 48.3415L80.4065 42.5197L78.3826 41.1081Z" fill="black"/>
<path d="M37.8565 22.0426C37.8028 22.1268 37.749 22.2111 37.6953 22.2953C37.749 22.2111 37.8028 22.1268 37.8565 22.0426Z" fill="#C60C30"/>
<path d="M58.0877 17.8139C51.3843 13.1497 42.33 15.0322 37.87 22.0426C35.64 25.5408 36.5401 30.2752 39.885 32.6214C43.23 34.9535 47.7572 34.0122 50.0006 30.5C52.2306 27.0018 56.7578 26.0465 60.1162 28.3927C63.4612 30.7248 64.3746 35.4592 62.1312 38.9714C66.6046 31.9611 64.7911 22.4922 58.0877 17.8139Z" fill="#C60C30"/>
<path d="M37.8566 22.0426C35.6266 25.5408 36.5266 30.2752 39.8716 32.6214C43.2166 34.9535 47.7438 34.0122 49.9872 30.5C52.2172 27.0018 56.7443 26.0465 60.1027 28.3927C63.4477 30.7248 64.3612 35.4592 62.1178 38.9714C57.6578 45.9818 48.59 47.8784 41.9001 43.2001C35.1967 38.5219 33.3832 29.053 37.8566 22.0567" fill="#003478"/>
</svg>
