<svg width="100" height="60" viewBox="0 0 100 60" fill="none" xmlns="http://www.w3.org/2000/svg">
<path d="M100 0H0V60H100V0Z" fill="#FFB700"/>
<path d="M38.111 6.28741H21.1309V53.7126H38.111V6.28741Z" fill="#FF5B00"/>
<path d="M21.143 6.28741H4.41797V53.7126H21.143V6.28741Z" fill="#005641"/>
<path d="M95.5677 6.28741H42.5449V53.7126H95.5677V6.28741Z" fill="#8D2029"/>
<path d="M62.7617 28.3141L63.6349 28.3418C63.6349 28.3418 62.6542 29.1985 62.8691 30.3454C63.9035 28.7839 64.2797 29.0741 64.2797 29.0741C63.9708 29.4196 63.3663 29.9032 63.8365 30.9673C64.2395 29.8894 65.0723 29.0603 65.0723 29.0603C65.0723 29.0603 64.844 30.2625 65.341 31.368C65.7037 30.2625 66.3082 29.309 66.3082 29.309C66.3082 29.309 66.2141 30.5113 66.738 30.9396C67.141 30.5665 67.4097 29.6269 67.4097 29.6269C67.4097 29.6269 68.1755 31.0087 68.6457 31.216C69.0218 30.2763 69.0218 29.5301 69.0218 29.5301C69.0218 29.5301 70.5935 30.6771 71.8429 30.0138C70.7279 29.5992 70.3383 28.6319 70.3383 28.6319C70.3383 28.6319 72.3803 29.5578 73.2535 29.1432C72.4072 28.4799 70.4054 27.485 70.4054 27.485C70.4054 27.485 71.8831 28.0377 72.313 27.8996C72.1115 27.5956 71.4667 27.2363 71.4667 27.2363L62.7752 28.3279L62.7617 28.3141Z" fill="#F5CD28"/>
<path d="M65.3799 31.3818C64.856 30.4145 64.9635 29.3505 65.0038 29.1018C64.8964 29.3091 64.2246 30.0553 63.8753 30.9949C63.338 30 63.8217 29.4887 64.1441 29.1432L64.2111 29.0741C64.1171 29.1018 63.741 29.1156 62.8947 30.3869C62.5723 29.1985 63.5664 28.3141 63.5798 28.3141L62.7335 28.3832C62.7335 28.3832 62.6797 28.3556 62.6797 28.3279C62.6797 28.3003 62.7066 28.2727 62.7335 28.2727L63.6067 28.3003C63.6336 28.4109 62.6797 29.24 62.8947 30.3454C63.4589 29.3091 63.8754 29.0603 64.1037 29.0189C64.2246 29.005 64.2784 29.0327 64.2918 29.0465L64.2111 29.2261C63.8887 29.5578 63.4454 30.0276 63.8619 30.9535C64.1708 29.8756 65.0039 29.0327 65.0173 29.0189C65.0979 29.0741 64.8962 30.2625 65.3664 31.3404C65.6217 30.2487 66.2262 29.2952 66.2396 29.2814C66.3337 29.3229 66.2531 30.4975 66.7501 30.912C67.0725 30.5665 67.3413 29.6407 67.3413 29.6269C67.4488 29.6269 68.201 30.9811 68.6443 31.1746C68.9399 30.2764 68.9533 29.5578 68.9533 29.544C68.9936 29.5163 69.9742 30.1796 70.9549 30.1796C71.237 30.1796 71.5325 30.1244 71.8012 29.9862C70.6728 29.6683 70.2966 28.7149 70.2697 28.6734C70.3369 28.6319 71.6937 29.2123 72.6475 29.2123C72.8625 29.2123 73.0506 29.1847 73.2118 29.1018C72.3655 28.5352 70.3907 27.5541 70.3639 27.5403C70.4042 27.4574 71.5728 27.8719 72.1101 27.8719C72.1773 27.8719 72.231 27.8719 72.2713 27.8443C72.0564 27.637 71.4116 27.2777 71.4116 27.2777C71.4922 27.2086 72.1236 27.5679 72.3386 27.8719C72.0296 28.0239 71.2907 27.8305 70.8071 27.6923C71.4519 27.9825 72.6609 28.6319 73.2654 29.1156C72.4325 29.5992 70.6325 28.853 70.337 28.7149C70.4713 28.853 70.8877 29.6269 71.8415 29.9862C70.6459 30.7324 69.1817 29.7513 68.9936 29.6131C69.0473 29.7236 69.0205 30.4007 68.6712 31.2575C68.1607 31.0916 67.4756 29.9033 67.3547 29.696C67.3816 29.848 67.1263 30.6495 66.7501 30.9949C66.2396 30.608 66.2262 29.6822 66.2262 29.392C66.1456 29.6545 65.662 30.4698 65.3664 31.3818H65.3799Z" fill="#8E1841"/>
<path d="M74.9998 17.0659C77.7 16.8171 81.8779 19.0834 84.0944 20.6034C84.0944 20.0921 84.0944 19.5946 84.578 19.3459C85.0751 19.0972 85.8139 19.5946 85.5586 20.3547C84.8198 22.1234 81.8779 20.1059 80.8972 19.5947L81.3942 20.6034C79.9165 20.3547 79.6747 20.0921 78.6941 18.8346C78.4523 19.8434 78.4523 20.0921 77.2164 20.0921C77.6731 19.3459 77.8343 19.0972 77.2164 18.3233L76.9745 19.8434L75.7522 18.0746V19.8434C75.5104 19.5946 74.5162 18.8346 74.0326 18.8346C73.2938 18.5859 72.8102 20.0921 72.555 20.8521C73.2938 20.0921 73.5355 19.5946 74.7714 20.0921C74.0997 20.7416 74.3013 21.5154 75.0133 22.1096C75.0133 22.1096 75.1476 21.0594 75.2148 20.8245C75.6044 21.1285 76.4372 22.2616 77.4716 22.3722C78.2104 22.3722 78.9493 22.1234 79.6881 21.8609C82.1465 21.6122 87.5469 22.1096 86.3245 25.8959C86.0826 26.6559 85.8274 27.1534 85.3438 27.6647C88.7828 28.9221 85.8408 33.4684 85.1019 35.7347C84.6049 37.7522 84.9541 39.3551 87.3722 39.1064C86.8885 40.1151 86.0826 40.281 85.1019 40.281C85.1019 40.281 85.2228 40.889 85.8541 41.1792C84.8063 42.1465 86.2169 43.5974 85.5855 44.3298C84.5243 44.8549 83.1272 44.0811 83.1272 44.0811L83.06 44.7996C83.06 44.7996 81.2061 44.6753 81.1658 44.5923C81.1658 44.5923 81.6899 43.5698 81.6496 43.556C81.1525 44.316 80.6822 44.7582 79.6881 44.5923C79.6881 44.5923 79.7687 44.1225 80.3195 43.5145C79.5672 44.2745 79.4867 44.6062 78.7075 44.5923C78.7075 43.3349 79.4464 41.8148 80.9241 42.3261C81.1659 42.3261 81.9451 42.9479 82.3078 42.5472C82.6033 42.105 82.4287 40.6403 82.4287 40.129C82.5899 37.8904 82.1466 38.0286 80.9241 36.7711C79.9434 36.011 79.218 34.8503 77.9955 34.6016C76.773 34.3528 74.7849 35.7623 73.8042 36.2598C71.3458 37.7798 69.1427 38.7886 66.4291 39.286C66.4291 39.286 66.4829 39.1617 66.4829 38.8991C66.4829 38.7333 69.1293 36.6052 69.5995 32.8742C68.874 36.55 66.2949 38.4984 66.2009 39.1893C66.1068 39.8664 65.5829 41.041 65.5157 41.1101C65.8381 40.9166 66.8591 40.3915 68.1487 40.281C67.8666 41.8563 66.4292 41.5385 66.1874 42.2985C66.1874 43.0585 67.1681 44.0672 66.1874 44.5647H62.2513C62.2513 44.5647 62.8558 43.708 62.8826 43.473C62.3587 43.8047 62.0229 44.6753 60.8541 44.5785C60.8944 44.2607 61.4452 43.7356 61.3512 43.5421C60.6929 44.1778 60.3706 44.7029 59.5377 44.5647C59.7795 43.8047 59.7795 42.7959 60.7736 42.7959C61.5125 42.5472 62.2513 43.0447 62.7349 42.2847C63.7155 41.0272 62.5603 38.2635 62.3185 36.7434C62.3185 35.4859 62.3184 35.2372 62.0094 33.7034L62.2513 38.2496C61.2706 37.4896 60.29 36.9922 59.5511 35.9834C57.8316 33.7172 58.3286 31.1884 60.5317 29.6683C61.5124 28.9083 62.0498 28.5214 63.2723 28.0101C63.0305 27.2501 63.6215 26.6974 62.7483 26.4625C62.4931 26.9323 62.2379 27.4436 61.7408 27.4021L62.0094 26.1446C62.0094 26.1446 61.1229 26.1999 61.2976 27.8305C60.2766 27.333 60.7736 26.1446 60.7736 26.1446H60.2766C60.2766 26.1446 60.2766 27.6508 59.4706 27.9549C59.6855 27.2501 59.7795 26.1446 59.7795 26.1446C59.7795 26.1446 58.463 27.7614 57.6973 27.2363C58.1406 26.7112 58.4899 26.6283 58.4362 25.9926C58.3824 25.357 58.0599 24.5555 58.0062 24.4173C58.2883 24.5555 60.1423 25.1221 61.2976 24.5279C61.217 24.9286 61.2572 25.3846 61.2572 25.3846C62.4797 25.1359 62.7349 25.1359 63.9574 25.6333C63.7156 23.8646 62.7215 23.6158 61.7408 22.3584V23.3671C60.7602 23.1184 60.5049 22.8558 60.0213 21.8471L59.2825 22.3584C57.9929 21.5707 57.0256 19.7052 58.866 19.8157C59.9675 19.9539 59.0272 20.8521 59.0272 20.8521C59.0272 20.8521 61.8349 19.9401 62.9633 19.8434C62.9633 19.8434 62.6409 19.1386 61.6065 19.0143C62.4663 18.351 63.3394 18.1299 63.9574 19.5394C64.5753 19.5808 65.153 18.807 64.7768 17.8259C65.6903 17.8121 66.1336 18.4063 66.55 19.0281C66.8858 19.0972 67.2352 18.7241 67.1546 17.4666C68.0144 18.2266 68.4442 18.4615 68.498 19.0972C69.2368 19.263 69.7204 19.0972 70.8354 18.5859C70.5936 19.5946 70.5936 19.8434 69.6129 20.3547C70.3115 21.2391 70.3787 22.3031 70.231 22.69C69.9892 22.6209 69.9353 22.6071 69.7607 22.5518C69.8144 22.9387 69.8951 24.0166 69.8548 24.6522H69.3577L70.0965 26.9185L69.5995 27.6785C71.319 26.9185 73.0386 27.1672 74.7581 26.6697C76.7194 26.421 78.6941 25.661 80.8972 25.661C82.3749 25.661 82.375 26.421 84.3363 26.421V25.1635C84.3363 24.1548 83.5973 23.146 82.3749 22.8973C81.636 22.8973 80.4135 23.4086 79.6747 23.6573C78.694 23.906 77.2164 23.906 76.2358 23.906C73.052 23.3947 73.5489 23.0769 72.4339 22.4689C71.7757 22.6485 71.3997 23.2289 71.0638 24.2653C70.4459 23.3395 70.5802 22.1511 71.319 21.6398C70.5802 18.8623 72.5415 17.6048 74.9998 17.0935V17.0659Z" fill="#FFB700"/>
<path d="M75.7393 39.7835C75.2422 39.0235 73.5227 37.766 74.0197 36.4947C74.7586 35.2372 78.9364 33.2197 79.6752 35.9973C79.917 36.7573 79.1648 38.761 78.923 39.521C79.2992 39.4242 79.7156 38.83 80.9246 39.0511C80.6963 40.0461 79.232 40.8061 79.232 40.8061C79.3798 41.4832 78.2245 44.5786 78.2245 44.5786H75.0272L75.5243 43.5698L74.7854 44.5786H73.5496L74.5302 43.3211C74.5302 43.3211 73.3615 44.7167 72.3809 44.6615C72.6227 42.644 73.7913 42.3123 75.5243 43.0585C75.7661 42.0498 76.2632 40.7923 75.7662 39.7835H75.7393Z" fill="#FFB700"/>
<path d="M72.409 44.7168H72.3418C72.503 42.7131 73.6045 42.188 75.4987 43.0171C75.4718 42.8927 75.4987 42.7269 75.5525 42.5472C75.7943 41.649 76.0763 40.6403 75.6733 39.8112C75.5524 39.6177 75.3508 39.3966 75.109 39.1479C74.4239 38.3879 73.5642 37.462 73.9403 36.4809C74.4374 35.6242 76.3451 34.5463 77.769 34.5463C78.7766 34.5463 79.4347 35.0438 79.69 35.9835C79.9049 36.6606 79.3676 38.2359 79.0452 39.1755L78.9243 39.521C78.9512 39.4381 79.0586 39.3828 79.166 39.3137C79.4884 39.1203 79.9721 38.8301 80.8721 38.9959C80.6841 40.0599 79.2467 40.8199 79.1929 40.8476C79.3676 41.4694 78.2526 44.468 78.2123 44.5924L74.9747 44.62L75.4182 43.5284L74.7732 44.5924L73.4971 44.62L74.1284 43.708C73.7388 44.1364 73.0404 44.7029 72.3821 44.7029L72.409 44.7168ZM74.1956 43.6804L73.5643 44.6062L74.7599 44.5233L75.4583 43.5422L75.0554 44.6062L78.1988 44.5233C78.1988 44.5233 79.3004 41.4694 79.166 40.8199C79.2063 40.7508 80.6437 39.9908 80.8587 39.0373C80.7243 39.0788 80.5632 39.0512 80.4154 39.0512C79.8512 39.0512 79.5288 39.2446 79.2602 39.4104C79.1393 39.4795 79.0318 39.5486 78.9243 39.5763L78.9779 39.1479C79.2735 38.2773 79.8244 36.6606 79.6094 36.0249C79.3139 34.9056 78.454 34.6707 77.7958 34.6707C76.2912 34.6707 74.4912 35.8038 74.0613 36.5362C73.7121 37.4344 74.5449 38.3464 75.2032 39.0788C75.4315 39.3414 75.6464 39.5624 75.7807 39.7697C76.1972 40.6403 75.9286 41.6767 75.6733 42.5887C75.633 42.7545 75.5793 42.9342 75.539 43.0862C74.9076 42.8789 74.424 42.7545 74.021 42.7545C73.1075 42.7545 72.5702 43.3625 72.409 44.62C73.3494 44.62 74.4508 43.3073 74.4643 43.2934C74.4643 43.2934 74.3703 43.5007 74.1956 43.6942V43.6804Z" fill="#8E1841"/>
<path d="M62.5741 20.7692C62.2381 20.9765 62.5203 22.3722 63.0177 22.1373C63.6495 21.8471 62.8161 20.6172 62.5741 20.7692Z" fill="#FFB700"/>
<path d="M62.9103 22.2202C62.7086 22.2202 62.5339 22.0129 62.4398 21.6536C62.3457 21.2943 62.3457 20.8521 62.5473 20.7278C62.8834 20.7278 63.2061 21.17 63.2867 21.5707C63.3539 21.8609 63.2598 22.082 63.0447 22.1787L62.9103 22.2064V22.2202ZM62.628 20.8245C62.4667 20.9074 62.4398 21.2805 62.5473 21.6398C62.6145 21.8747 62.749 22.1235 62.9103 22.1235V22.1787L63.0045 22.0958C63.2196 21.9991 63.2194 21.778 63.1925 21.6122C63.1119 21.2253 62.7759 20.8245 62.628 20.8245Z" fill="#8E1841"/>
<path d="M62.8965 20.3409C63.501 20.7831 64.4683 21.9576 65.6504 21.8886C64.7504 21.1285 64.9384 20.5758 64.9384 20.5758C65.4086 21.1562 66.9804 21.6813 67.4909 21.4464C66.8863 20.9904 66.7789 20.9351 66.6445 20.5067C67.3565 20.6034 68.2565 20.7554 68.9685 20.4376L62.8965 20.3409Z" fill="#FFB700"/>
<path d="M65.4224 21.8609C64.5761 21.8609 63.8642 21.2391 63.3403 20.7693C63.1657 20.6172 63.0178 20.4791 62.8834 20.3823C62.8566 20.3685 62.8566 20.3271 62.8834 20.3132C62.8969 20.2856 62.9372 20.2856 62.9641 20.2994C63.0984 20.3962 63.2596 20.5343 63.4343 20.7002C64.0119 21.1976 64.7777 21.8886 65.6912 21.8471C64.7508 21.17 64.9119 20.5896 64.9254 20.5758C65.4627 21.1147 67.0076 21.6536 67.5047 21.4187L67.3166 21.3773C66.8599 21.0318 66.7389 20.9489 66.618 20.5343L66.8733 20.4929C67.5585 20.5896 68.3375 20.6863 68.9689 20.3962C68.351 20.7969 67.5585 20.6863 66.8599 20.5896L66.6584 20.562C66.833 20.866 66.9271 20.9351 67.3704 21.2805L67.545 21.4049C67.0077 21.7365 65.4627 21.2253 64.9523 20.6449C64.9926 20.7693 65.0059 21.2391 65.7179 21.8471C65.6239 21.8609 65.5433 21.8747 65.4493 21.8747L65.4224 21.8609Z" fill="#8E1841"/>
<path d="M64.0645 28.0378L64.1317 26.9738C64.1317 26.9738 64.8039 28.5905 65.3013 28.6182C64.9921 27.4436 65.1265 26.4901 65.1265 26.4901L64.0645 28.0378Z" fill="#FFB700"/>
<path d="M65.3154 28.6043C64.7508 28.6043 64.1458 27.1672 64.0786 27.0014L64.1055 28.0378C64.1055 28.0378 64.0786 28.0792 64.0517 28.0931C64.0248 28.0931 63.998 28.0654 63.998 28.0378L64.0652 26.9738C64.3475 27.4021 64.9121 28.5353 65.2885 28.5629C64.9256 27.4574 65.0599 26.5039 65.0599 26.4901C65.1675 26.5177 65.0332 27.4574 65.3423 28.6043H65.3154Z" fill="#8E1841"/>
<path d="M65.623 26.7526C65.623 26.7526 66.9664 29.2814 67.6112 28.8807C66.6305 27.9825 66.738 26.8079 66.738 26.8079C66.738 26.8079 67.1814 28.3694 68.5113 28.853C68.6053 27.9825 68.0008 26.5453 68.0008 26.5453C68.0008 26.5453 69.1024 28.5352 69.6531 28.5767C70.0159 28.1207 69.8816 27.6232 69.8816 27.6232L65.623 26.7526Z" fill="#FFB700"/>
<path d="M67.437 28.9636C67.437 28.9636 67.3699 28.9636 67.3431 28.9636C66.6311 28.7702 65.6235 26.8632 65.5697 26.7803C65.5563 26.7527 65.5697 26.725 65.5966 26.7112C65.6235 26.6974 65.6504 26.7112 65.6638 26.7389C65.6638 26.7527 66.6983 28.6873 67.3699 28.8669C67.4505 28.8945 67.531 28.8669 67.5848 28.8393C66.5772 28.024 66.6848 26.8218 66.6848 26.8079C66.7923 26.8079 67.249 28.3418 68.5252 28.8116C68.5387 28.0102 67.9475 26.6007 67.9475 26.5869C67.9744 26.5869 68.0146 26.6421 68.0549 26.7389C68.4848 27.3192 69.2506 28.5076 69.6536 28.5353C69.9357 28.1207 69.8282 27.6647 69.8282 27.6647C69.9357 27.6647 70.0566 28.1622 69.6939 28.632C69.2372 28.6182 68.5252 27.568 68.1759 26.9876C68.3774 27.4712 68.6191 28.2865 68.5654 28.8807C67.4235 28.5214 66.8996 27.4021 66.7384 26.9876C66.7922 27.3331 66.8997 28.176 67.652 28.8531C67.5848 28.9636 67.5176 28.9913 67.437 28.9913V28.9636Z" fill="#8E1841"/>
<path d="M64.5759 24.9977L65.5566 26.2966L65.7178 24.5693C65.7178 24.5693 66.6851 25.357 66.8598 25.3293C67.0344 25.3017 66.591 23.4776 66.591 23.4776C66.591 23.4776 67.8941 25.509 67.9747 25.4537C68.0687 25.4122 68.109 23.45 68.109 23.45C68.109 23.45 69.0896 26.2414 69.4255 26.2137C69.7613 26.1861 69.6674 25.8268 69.6674 25.8268L64.5625 24.9977H64.5759Z" fill="#FFB700"/>
<path d="M65.61 26.2966L64.5353 25.0391C64.5353 25.0391 64.5218 24.9838 64.5353 24.9562C64.5621 24.9424 64.5891 24.9424 64.6159 24.9562L65.5966 26.2551L65.6638 24.5555C66.2146 24.8871 66.752 25.2464 66.8594 25.2602C66.9132 25.1773 66.7384 24.2791 66.5503 23.4776C67.1145 24.1547 67.8938 25.3293 68.0013 25.3984C68.0013 25.3155 68.0549 24.3344 68.0683 23.4362C68.6325 24.7489 69.2774 26.1584 69.4386 26.1446C69.5192 26.1446 69.5729 26.117 69.5998 26.0617C69.6669 25.9649 69.6267 25.8268 69.6267 25.8129C69.7207 25.7853 69.7745 25.9788 69.6805 26.117C69.6267 26.186 69.5461 26.2275 69.4386 26.2413C69.0893 26.2413 68.2967 24.0994 68.0683 23.4362C68.1221 25.4122 68.0416 25.4537 68.0013 25.4675C67.9475 25.4951 67.8802 25.5366 66.5503 23.4638C66.7384 23.8093 67.0474 25.1082 66.9265 25.3017C66.6713 25.3569 65.9191 24.7489 65.6907 24.5693L65.6235 26.2551L65.61 26.2966Z" fill="#8E1841"/>
<path d="M63.8377 22.7315C63.8377 22.7315 65.3557 24.1548 65.5169 24.0719C65.6781 23.9751 64.8854 22.4136 64.8854 22.4136C64.8854 22.4136 65.7586 23.2704 66.0944 23.3395C66.4303 23.4086 66.202 22.234 66.202 22.234C66.202 22.234 67.2363 23.1322 67.4109 23.0907C67.5855 23.0493 67.505 22.234 67.505 22.234C67.505 22.234 68.1767 22.9249 68.217 22.9249C68.2573 22.9249 68.0826 20.9351 68.0826 20.9351C68.0826 20.9351 69.5872 22.5795 69.6947 22.5518L63.8242 22.7315H63.8377Z" fill="#FFB700"/>
<path d="M65.5173 24.1271C65.3023 24.1271 64.4828 23.4086 63.8112 22.7729C63.7843 22.7591 63.7843 22.7176 63.8112 22.69C63.8246 22.6624 63.8648 22.6624 63.8917 22.69C64.5902 23.3395 65.3829 24.0166 65.5173 24.0166C65.5441 23.9199 65.2083 23.1184 64.859 22.4275C65.1814 22.5933 65.8665 23.2151 66.1217 23.2704C66.2964 23.1322 66.2292 22.5656 66.1755 22.234C66.7397 22.6071 67.2904 23.0355 67.4247 23.0217C67.4919 23.0078 67.5188 22.6209 67.4785 22.2202C67.8681 22.4827 68.2173 22.8282 68.2711 22.8558C68.2173 22.8006 68.1233 21.6398 68.0695 20.9351C68.7143 21.4878 69.6278 22.4551 69.7353 22.4827C69.7084 22.6071 69.601 22.6209 68.083 20.9627C68.3516 22.8835 68.3114 22.9249 68.298 22.9387C68.2308 22.9526 68.1905 22.9526 67.5054 22.2478C67.6263 22.4551 67.6666 23.0631 67.4651 23.1184C67.2904 23.1875 66.4978 22.5104 66.2291 22.2755C66.3366 22.4136 66.4575 23.146 66.2695 23.3257C66.2695 23.3257 66.1351 23.3671 66.1217 23.3671C65.7724 23.298 64.9261 22.4689 64.8858 22.4275C65.5037 23.4362 65.7052 24.0166 65.5709 24.0995C65.5709 24.0995 65.5574 24.0995 65.544 24.0995L65.5173 24.1271Z" fill="#8E1841"/>
<path d="M57.7383 23.2427C57.8054 23.3533 58.0473 25.3984 61.1236 24.5693C61.4191 24.4035 61.2848 25.1359 61.2713 25.357C61.4057 25.3293 62.8699 24.8042 63.8774 25.5642C63.7565 24.7213 63.5417 24.1548 62.6685 23.6711C62.2386 23.5744 61.9296 23.8093 61.9296 23.8093C61.9296 23.8093 58.2353 23.8369 57.7383 23.2704V23.2427Z" fill="#FFB700"/>
<path d="M63.8767 25.6057H63.85C63.5007 25.3432 63.0573 25.205 62.5333 25.205C62.0094 25.205 61.5796 25.3294 61.3781 25.3846C61.3646 25.3846 61.2975 25.3846 61.2841 25.3846C61.2841 25.3846 61.2169 25.3708 61.2169 25.357V25.2188C61.2437 25.053 61.284 24.6937 61.2169 24.6246C60.6392 24.7628 60.196 24.8319 59.793 24.8319C58.6914 24.8319 57.9794 24.3344 57.6973 23.3533C57.6973 23.3533 57.6973 23.3257 57.6973 23.298C58.2212 24.597 59.3228 25.0115 61.1095 24.5279L61.2976 24.5555C61.3916 24.6661 61.3646 24.9424 61.3377 25.2465V25.3708C61.5392 25.2326 62.0094 25.1083 62.5333 25.1083C63.0573 25.1083 63.4604 25.2188 63.8096 25.4537C63.6887 24.6799 63.4469 24.1686 62.6409 23.7264C62.5872 23.7264 62.52 23.7126 62.4663 23.7126C62.1707 23.7126 61.9692 23.8508 61.9692 23.8508C61.002 23.8508 58.1675 23.8231 57.7107 23.298C57.7107 23.2704 57.7107 23.2566 57.7242 23.2428C57.751 23.2289 57.7645 23.2013 57.7914 23.2151C58.1272 23.602 60.1959 23.7402 61.8617 23.7402C61.902 23.7402 62.1439 23.5882 62.4797 23.5882C62.5469 23.5882 62.6274 23.5882 62.6945 23.6159C63.5946 24.1133 63.823 24.6799 63.9439 25.5643C63.9439 25.5919 63.9439 25.6057 63.9171 25.6196C63.9171 25.6196 63.9036 25.6196 63.8902 25.6196L63.8767 25.6057Z" fill="#8E1841"/>
<path d="M56.0733 36.2183C56.0196 36.4533 55.8584 36.5223 55.4017 37.1995C55.6032 37.4896 56.5436 37.9457 56.7988 37.6969C57.0272 37.5726 57.0405 36.9369 57.0405 36.9369C57.5376 37.6969 58.3973 38.8853 59.378 39.134C60.1168 39.3828 60.8556 38.8853 60.8556 38.1253C60.8556 37.3653 59.7407 36.1492 59.2571 35.6518C58.0346 34.1317 58.142 31.2713 55.818 31.672C55.818 31.6997 55.7106 32.0175 55.4956 32.0728C55.6837 32.4459 55.7912 32.7499 55.3344 32.8743C55.6837 33.2197 55.7374 33.4823 55.2941 33.6619C55.5628 34.035 55.8853 34.1732 55.2539 34.491C55.8987 35.1405 56.0465 36.1078 56.0733 36.2183Z" fill="#FFB700"/>
<path d="M59.7667 39.2722C59.6324 39.2722 59.498 39.2446 59.3636 39.2031C58.6248 39.0096 57.8591 38.3049 57.0262 37.0336C57.0799 37.1856 57.0261 37.6278 56.8112 37.7522C56.7709 37.7936 56.6769 37.8213 56.5695 37.8213C56.1799 37.8213 55.5216 37.4758 55.347 37.2271C55.5485 36.8678 55.6963 36.6881 55.7904 36.5499C55.9247 36.3841 55.9783 36.315 56.0052 36.1907C55.938 35.8867 55.7634 35.0852 55.1992 34.5186C55.4142 34.3252 55.5216 34.2423 55.5351 34.1593C55.5485 34.0764 55.4679 33.9935 55.3739 33.8692C55.3201 33.8139 55.2798 33.7586 55.2261 33.6757C55.4142 33.5237 55.5082 33.4408 55.5351 33.3579C55.5619 33.2473 55.468 33.0953 55.2799 32.9019C55.4411 32.7775 55.5217 32.7222 55.562 32.6393C55.6157 32.5149 55.5486 32.3353 55.4276 32.0866C55.5754 31.976 55.6694 31.8655 55.75 31.6582C55.9515 31.5753 56.0859 31.5615 56.2202 31.5615C57.483 31.5615 57.9128 32.6531 58.3695 33.8139C58.6248 34.4495 58.8801 35.099 59.2831 35.5965C59.7667 36.0939 60.8951 37.3376 60.8951 38.1114C60.8951 38.7471 60.3981 39.2446 59.7532 39.2446L59.7667 39.2722ZM56.9858 36.9507C57.9128 38.2082 58.6651 38.9129 59.3905 39.1064C60.1025 39.3551 60.8011 38.8438 60.8011 38.1529C60.8011 37.4205 59.6995 36.2045 59.2159 35.707C58.7994 35.1957 58.5308 34.5324 58.2756 33.883C57.7785 32.6393 57.3217 31.4786 55.8171 31.7411C55.7634 31.9622 55.6425 32.1142 55.4947 32.1418C55.6425 32.28 55.75 32.5288 55.6694 32.7084C55.6156 32.8189 55.5082 32.888 55.347 32.9433C55.5888 33.0815 55.6828 33.2611 55.6559 33.4131C55.629 33.5375 55.5216 33.6481 55.3066 33.731C55.3738 33.731 55.4275 33.7724 55.4678 33.8277C55.5887 33.9659 55.6828 34.0764 55.6559 34.2146C55.629 34.3252 55.5217 34.4357 55.2665 34.5601C55.871 35.0575 56.0456 35.8867 56.0993 36.1492C56.0859 36.3841 56.0187 36.467 55.8843 36.6467C55.7769 36.771 55.6426 36.9507 55.4411 37.2547C55.6292 37.4481 56.5561 37.8627 56.7576 37.6831C56.9322 37.5863 56.9858 37.1303 56.9858 36.9645V36.9507Z" fill="#8E1841"/>
<path d="M55.455 14.8273C54.7162 15.9328 54.6355 28.0378 54.8639 30.4837C54.125 30.9811 52.7548 30.7738 52.3652 30.608C52.5399 29.7375 53.1848 15.6978 55.455 14.8273Z" fill="#FFB700"/>
<path d="M53.5741 30.8429C53.0636 30.8429 52.5799 30.7462 52.3516 30.6633C52.3516 30.4422 52.4053 29.8342 52.4724 28.9774C52.7948 24.9424 53.5607 15.4905 55.4414 14.772C54.7831 15.9327 54.6891 27.8996 54.9309 30.4698C54.5144 30.7876 53.9637 30.8429 53.5875 30.8429H53.5741ZM55.4145 14.7996C53.6547 15.5734 52.8755 25.3293 52.58 28.9912C52.5128 29.8756 52.4591 30.4698 52.4322 30.6218C52.6069 30.6495 53.0905 30.7324 53.5741 30.7324C53.9502 30.7324 54.474 30.6771 54.8368 30.4284C54.6084 28.2865 54.6353 15.9327 55.4145 14.7858V14.7996Z" fill="#8E1841"/>
<path d="M53.3729 39.6592C53.3729 39.6592 50.1085 40.129 51.4922 38.1391C52.6609 37.614 52.6341 38.8439 52.2042 39.2584C52.7415 39.3137 53.0908 38.9682 53.1714 38.4155C52.5131 37.5035 53.4536 36.8955 53.3998 36.8955C51.1295 37.4206 50.8205 35.8176 51.6668 35.5551C52.7281 35.6103 52.3922 35.9696 52.8087 36.2874C53.5744 35.5551 54.0311 35.486 54.4879 36.2322C54.9446 35.4998 55.6028 35.5827 55.6297 35.6518C56.3685 36.9369 54.7432 37.0198 54.0715 36.854C54.6357 37.4896 54.4073 38.0838 54.2192 38.526C54.2327 38.9682 54.5551 39.0373 55.079 39.2031C53.964 36.0249 59.0285 40.0461 53.9372 39.6453C53.9372 39.7835 53.9505 39.9217 53.9639 40.0599C54.3804 40.1428 54.6625 40.2395 54.8103 40.6955C54.6356 40.9443 54.3536 40.9719 53.9237 40.8061C53.9237 40.8061 54.179 41.5385 53.7222 41.7457C53.3326 41.5108 53.2922 40.9305 53.2922 40.9305C53.0773 41.2068 52.7684 41.0272 52.4997 40.7923C52.7415 40.1843 53.4132 40.4744 53.3595 39.6177L53.3729 39.6592Z" fill="#FFB700"/>
<path d="M50.5645 29.9586C50.7526 29.0465 52.8213 29.1571 51.8406 30.1382C52.4989 31.216 54.5006 31.0502 55.2528 30.456C54.6215 29.2124 56.3544 29.4749 56.2738 30.4284C56.0589 32.1142 50.3496 31.8931 50.5645 29.9586Z" fill="#FFB700"/>
<path d="M88.2459 46.0433C88.8638 47.2178 89.9386 50.0092 90.5431 50.6863C91.1073 51.2114 92.5178 51.1423 92.9476 50.5619C92.9476 50.5619 93.8478 51.5154 94.2105 51.8056C94.4254 51.7227 94.5598 51.5154 94.5598 51.5154C94.1971 51.1009 93.6999 50.8798 93.4447 50.1197C93.8074 49.6223 94.0089 48.6412 93.7671 47.8811C92.6924 46.0295 89.119 46.7618 88.2324 46.0571L88.2459 46.0433Z" fill="#FFB700"/>
<path d="M94.196 51.8609H94.1691C93.8064 51.5569 92.9333 50.631 92.893 50.5896C92.6243 51.1561 91.0525 51.239 90.4883 50.7278C90.0853 50.2856 89.4807 48.9175 88.9434 47.7153C88.6613 47.0797 88.3927 46.4717 88.1777 46.0709C88.5673 46.2506 89.2657 46.3197 90.0718 46.3887C91.4286 46.5131 93.1078 46.6513 93.7929 47.8397C94.0616 48.6412 93.8332 49.6361 93.4705 50.1474C93.6452 50.631 93.9542 50.8936 94.2363 51.1561C94.3572 51.2667 94.4647 51.3634 94.5722 51.474C94.5722 51.5569 94.4378 51.7642 94.196 51.8471H94.1691L94.196 51.8609ZM92.893 50.5343C92.987 50.5343 93.8333 51.4463 94.2094 51.7503C94.3841 51.6674 94.5049 51.5016 94.5049 51.4878C94.4109 51.4463 94.3034 51.3358 94.1825 51.2391C93.887 50.9765 93.5646 50.7001 93.39 50.1336C93.7527 49.6085 93.9542 48.655 93.7124 47.895C93.0541 46.7757 91.4017 46.6237 90.0718 46.4993C89.2523 46.4302 88.5403 46.3611 88.2045 46.0986C88.5 46.444 88.7687 47.0382 89.0508 47.6877C89.5881 48.8761 90.1927 50.2303 90.5688 50.6587C91.0658 51.1147 92.5168 51.0456 92.893 50.5343Z" fill="#8E1841"/>
<path d="M49.8666 13.8879C49.2487 12.7134 48.1605 9.9082 47.5694 9.24491C47.0052 8.71981 45.5947 8.7889 45.1649 9.36928C45.1649 9.36928 44.2647 8.4158 43.902 8.12561C43.6871 8.1947 43.5527 8.4158 43.5527 8.4158C43.9154 8.83035 44.4126 9.05145 44.6678 9.81147C44.3051 10.3089 44.1036 11.2901 44.3454 12.0501C45.4201 13.9018 48.9935 13.1694 49.8801 13.8741L49.8666 13.8879Z" fill="#FFB700"/>
<path d="M49.8255 13.9291C49.5031 13.6803 48.818 13.6112 48.012 13.5421C46.6552 13.4178 44.9759 13.2658 44.2908 12.0912C44.0221 11.2897 44.2505 10.2948 44.6132 9.7835C44.4386 9.29986 44.1297 9.0373 43.8476 8.77475C43.7267 8.6642 43.6192 8.56747 43.5117 8.44311C43.5117 8.37401 43.6594 8.15292 43.8877 8.07001C44.3042 8.3602 45.1641 9.28604 45.2044 9.32749C45.473 8.77475 47.0447 8.69184 47.6089 9.20313C48.0119 9.64532 48.6164 11.0134 49.1538 12.2017C49.4359 12.8374 49.7045 13.4454 49.9194 13.86L49.8389 13.9291H49.8255ZM43.861 8.18056C43.7132 8.24965 43.5922 8.45693 43.5922 8.45693C43.6863 8.5122 43.8072 8.60893 43.9146 8.70566C44.2102 8.96821 44.5327 9.24458 44.7073 9.81114C44.3581 10.3362 44.143 11.2897 44.3848 12.0497C45.043 13.169 46.6955 13.321 48.0254 13.4454C48.724 13.5007 49.3554 13.556 49.7315 13.7494C49.53 13.3487 49.3016 12.8236 49.0464 12.257C48.509 11.0686 47.9179 9.71441 47.5284 9.28604C47.0313 8.83003 45.5805 8.89912 45.2044 9.4104C45.1103 9.4104 44.2237 8.45693 43.861 8.18056Z" fill="#8E1841"/>
<path d="M49.5042 45.8636C48.3624 46.4993 45.6488 47.6186 44.9905 48.2266C44.4801 48.807 44.5472 50.2579 45.1114 50.7001C45.1114 50.7001 44.1845 51.626 43.9023 51.9991C43.9829 52.2202 44.1846 52.3584 44.1846 52.3584C44.5876 51.9853 44.8025 51.474 45.5414 51.2114C46.025 51.5845 46.9788 51.7918 47.7176 51.5431C49.5177 50.4376 48.8057 46.7619 49.4908 45.8636H49.5042Z" fill="#FFB700"/>
<path d="M44.1972 52.4274L44.1568 52.3998C44.1568 52.3998 43.9285 52.2478 43.8613 52.0129C44.1434 51.5845 45.0434 50.7001 45.0837 50.6586C44.8284 50.5343 44.6538 50.1335 44.6135 49.6361C44.5598 49.0557 44.6941 48.4891 44.9628 48.1851C45.3927 47.7706 46.7092 47.1487 47.878 46.596C48.4959 46.3058 49.0869 46.0294 49.4899 45.8083C49.3153 46.2091 49.2482 46.9276 49.181 47.7568C49.0601 49.1524 48.9123 50.8797 47.7704 51.5845C47.542 51.6674 47.3003 51.7089 47.0316 51.7089C46.4809 51.7089 45.8898 51.5292 45.5405 51.2528C45.0704 51.4325 44.815 51.7503 44.5597 52.0405C44.4523 52.1649 44.3582 52.2754 44.2373 52.386L44.2105 52.4136L44.1972 52.4274ZM49.4631 45.8222C49.1272 46.1262 48.5361 46.4025 47.9182 46.6927C46.7629 47.2317 45.4465 47.8535 45.03 48.2542C44.7882 48.5306 44.6672 49.0695 44.7209 49.6223C44.7612 50.0783 44.9225 50.4652 45.1509 50.6448C45.1509 50.7416 44.224 51.6536 43.9553 52.0267C44.009 52.1372 44.13 52.234 44.1837 52.2892C44.2778 52.1925 44.3717 52.082 44.4658 51.9852C44.721 51.6812 44.9898 51.3496 45.5405 51.1699C46.1182 51.5707 47.072 51.7227 47.7168 51.5016C48.8049 50.8245 48.9527 49.1248 49.0736 47.7568C49.1408 46.9138 49.2078 46.1814 49.4765 45.836L49.4631 45.8222Z" fill="#8E1841"/>
<path d="M88.3396 13.8876C88.9576 12.7131 90.0456 9.90789 90.6367 9.2446C91.2009 8.7195 92.6115 8.78859 93.0414 9.36897C93.0414 9.36897 93.9414 8.41549 94.3041 8.12531C94.519 8.1944 94.6534 8.41549 94.6534 8.41549C94.2907 8.83005 93.7937 9.05115 93.5384 9.81116C93.9011 10.3086 94.1026 11.2897 93.8608 12.0498C92.7861 13.9014 89.2128 13.1691 88.3262 13.8738L88.3396 13.8876Z" fill="#FFB700"/>
<path d="M88.3658 13.9293L88.2852 13.8602C88.5001 13.4456 88.7687 12.8514 89.0508 12.202C89.5881 10.9998 90.1927 9.64554 90.5957 9.20335C91.1599 8.69206 92.6645 8.77497 93.0809 9.34153C93.054 9.28626 93.9138 8.37423 94.2765 8.08405C94.5586 8.15314 94.693 8.37423 94.7065 8.38805C94.599 8.56769 94.4781 8.67824 94.3572 8.77497C94.0617 9.03752 93.766 9.30008 93.5914 9.82518C93.9541 10.2812 94.169 11.2623 93.9138 12.0638C93.2287 13.2522 91.5362 13.4042 90.1928 13.5285C89.3868 13.5976 88.6881 13.6667 88.3791 13.9155L88.3658 13.9293ZM91.7644 8.94079C91.3077 8.94079 90.9048 9.06516 90.6764 9.28626C90.2868 9.71463 89.6957 11.0688 89.1584 12.2572C88.9031 12.81 88.6748 13.3489 88.4732 13.7358C88.8494 13.5562 89.4808 13.4871 90.1793 13.4318C91.5093 13.3074 93.1616 13.1693 93.8198 12.0361C94.0616 11.2899 93.8467 10.3365 93.4974 9.85282C93.6721 9.2448 93.981 8.96843 94.2765 8.70588C94.384 8.60915 94.4914 8.51242 94.5989 8.40187C94.5586 8.40187 94.4512 8.24987 94.29 8.19459C93.981 8.47096 93.0943 9.41062 93.0809 9.42444C92.7988 9.13425 92.3152 8.95461 91.7644 8.95461V8.94079Z" fill="#8E1841"/>
<path d="M51.4925 32.0313C51.4388 32.4182 52.3389 32.584 53.2524 32.584C54.1659 32.584 55.1061 32.432 55.1464 32.1695C55.1464 31.6996 54.354 32.1004 53.4271 32.0866C52.5001 32.0866 51.7343 31.6996 51.4925 32.0313Z" fill="#FFB700"/>
<path d="M53.2914 32.6393H53.2512C52.9153 32.6393 51.8137 32.5978 51.5182 32.2524C51.4644 32.1833 51.4375 32.1004 51.4375 32.0175C51.5987 31.7825 51.9347 31.824 52.4317 31.9069C52.7273 31.9622 53.0631 32.0175 53.4124 32.0175C53.7616 32.0175 54.0705 31.9622 54.3392 31.9207C54.7422 31.8516 55.011 31.824 55.1185 31.9484C55.1588 32.0036 55.1855 32.0589 55.1855 32.1556C55.1318 32.5287 53.9093 32.6255 53.2779 32.6255L53.2914 32.6393ZM51.8406 31.9484C51.6794 31.9484 51.5854 31.9898 51.5316 32.0589C51.5316 32.0866 51.5451 32.128 51.5854 32.1833C51.7601 32.3906 52.4048 32.5287 53.2377 32.5287L53.2779 32.584V32.5287C54.3123 32.5287 55.0513 32.3353 55.0781 32.1556C55.0781 32.1004 55.0781 32.0727 55.0378 32.0451C54.9572 31.9622 54.6885 31.9898 54.3527 32.0451C54.084 32.0866 53.7617 32.1418 53.4393 32.1418C53.0497 32.1418 52.7138 32.0727 52.4183 32.0313C52.1899 31.9898 52.0018 31.9622 51.8406 31.9622V31.9484Z" fill="#FFB700"/>
<path d="M51.5586 33.0953C51.5586 33.4546 52.4586 33.5375 53.2378 33.5651C54.017 33.5928 54.8094 33.427 54.9572 33.1644C54.8228 32.7499 53.9498 33.0953 53.2378 33.1091C52.5258 33.123 51.7467 32.7499 51.5586 33.0815V33.0953Z" fill="#FFB700"/>
<path d="M53.3981 33.6204H53.2369C52.4443 33.5928 51.5173 33.5099 51.5039 33.0953C51.5979 32.9157 51.7592 32.9019 51.8801 32.9019C52.0279 32.9019 52.216 32.9295 52.4175 32.9709C52.6593 33.0124 52.9144 33.0677 53.1697 33.0677C53.4383 33.0677 53.6802 33.0262 53.9086 32.9848C54.137 32.9433 54.3518 32.9157 54.5265 32.9157C54.6877 32.9157 54.916 32.9433 54.9832 33.1506C54.822 33.4961 54.0295 33.6204 53.3712 33.6204H53.3981ZM51.8935 33.0124C51.7458 33.0124 51.6516 33.0539 51.6113 33.123C51.6248 33.3302 52.1757 33.4684 53.2503 33.5099H53.3981C54.1369 33.5099 54.7952 33.344 54.9161 33.1368C54.8355 33.0124 54.4458 33.0124 53.9488 33.0815C53.7204 33.123 53.4787 33.1644 53.2503 33.1644C52.9817 33.2059 52.6727 33.123 52.4175 33.0677C52.216 33.0262 52.0413 32.9986 51.8935 32.9986V33.0124Z" fill="#FFB700"/>
<path d="M51.8126 34.0488C51.7455 34.3252 52.5247 34.5187 53.2501 34.5187C53.9621 34.5187 54.983 34.2423 54.9964 33.9521C54.9561 33.7172 53.9486 34.035 53.2769 34.0488C52.6052 34.0765 51.8261 33.8001 51.8261 34.0488H51.8126Z" fill="#FFB700"/>
<path d="M53.2635 34.5739H53.2501C52.6859 34.5739 51.9872 34.4358 51.7991 34.2008C51.7588 34.1456 51.7455 34.0903 51.759 34.035C51.759 33.883 51.947 33.883 52.0141 33.883C52.1216 33.883 52.2827 33.8968 52.4574 33.9245C52.6723 33.9521 52.9276 33.9936 53.1828 33.9936C53.5187 33.9936 53.8277 33.9383 54.0964 33.883C54.3651 33.8416 54.6069 33.8001 54.7681 33.8001C54.8353 33.8001 55.0098 33.8001 55.0367 33.9245C55.0367 34.2976 53.9621 34.5601 53.2635 34.5601V34.5739ZM52.0141 33.9936C51.9067 33.9936 51.8664 34.0074 51.8664 34.0488C52.0276 34.3114 52.6321 34.4634 53.2501 34.4634V34.5187L53.2635 34.4634C53.9889 34.4634 54.9293 34.1732 54.9293 33.9521C54.9293 33.9383 54.5532 33.9383 54.1099 34.0074C53.8277 34.0488 53.5188 34.1041 53.2635 34.1179C52.8874 34.1179 52.6589 34.0903 52.4439 34.0488C52.2827 34.0212 52.1216 34.0074 52.0141 34.0074V33.9936Z" fill="#FFB700"/>
<path d="M51.7345 35.0299C51.7882 35.2925 52.6747 35.3892 53.4539 35.3201C54.233 35.2648 55.0258 35.0161 55.0929 34.7259C55.0526 34.5463 54.166 34.8641 53.4272 34.9055C52.6883 34.947 51.7211 34.8088 51.7345 35.0299Z" fill="#FFB700"/>
<path d="M52.9827 35.3892C52.7006 35.3892 51.7469 35.3616 51.6797 35.0299C51.7737 34.8641 51.9348 34.8365 52.2707 34.8365H53.0903C53.1978 34.8365 53.3187 34.8365 53.4261 34.8365C53.7485 34.8226 54.0843 34.7535 54.3799 34.6983C54.6217 34.6568 54.8365 34.6154 54.9574 34.6154C54.9977 34.6154 55.1321 34.6154 55.1455 34.7121C55.0649 35.0714 54.2186 35.3063 53.4663 35.3616C53.3051 35.3616 53.1574 35.3754 52.9962 35.3754L52.9827 35.3892ZM52.2707 34.947C51.9886 34.947 51.8274 34.9746 51.7871 35.0023C51.814 35.1266 52.2439 35.2648 52.9827 35.2648C53.1439 35.2648 53.2917 35.2648 53.4529 35.251C54.2589 35.1819 54.9844 34.9332 55.0381 34.6983C54.8232 34.6983 54.6217 34.7535 54.3933 34.795C54.0978 34.8503 53.7485 34.9194 53.4261 34.9332C53.3187 34.9332 53.1978 34.9332 53.0903 34.9332H52.2707V34.947Z" fill="#FFB700"/>
</svg>
