<svg width="100" height="61" viewBox="0 0 100 61" fill="none" xmlns="http://www.w3.org/2000/svg">
<path d="M100 0H0V4.35514H100V0Z" fill="#CC0001"/>
<path d="M100 4.3551H0V8.71024H100V4.3551Z" fill="white"/>
<path d="M100 8.71021H0V13.0653H100V8.71021Z" fill="#CC0001"/>
<path d="M100 13.0795H0V17.4346H100V13.0795Z" fill="white"/>
<path d="M100 17.4346H0V21.7897H100V17.4346Z" fill="#CC0001"/>
<path d="M100 21.7897H0V26.1448H100V21.7897Z" fill="white"/>
<path d="M100 26.1449H0V30.5H100V26.1449Z" fill="#CC0001"/>
<path d="M100 30.5H0V34.8551H100V30.5Z" fill="white"/>
<path d="M100 34.8551H0V39.2102H100V34.8551Z" fill="#CC0001"/>
<path d="M100 39.2103H0V43.5655H100V39.2103Z" fill="white"/>
<path d="M100 43.5795H0V47.9346H100V43.5795Z" fill="#CC0001"/>
<path d="M100 47.9346H0V52.2897H100V47.9346Z" fill="white"/>
<path d="M100 52.2897H0V56.6448H100V52.2897Z" fill="#CC0001"/>
<path d="M100 56.6449H0V61H100V56.6449Z" fill="white"/>
<path d="M58.3289 0H0V34.8551H58.3289V0Z" fill="#010066"/>
<path d="M15.6234 17.4345C15.6234 11.1126 20.5267 5.9988 26.5584 5.9988C28.654 5.9988 30.6154 6.61695 32.2811 7.68466C30.0646 5.61949 27.1495 4.36914 23.9523 4.36914C17.0608 4.36914 11.459 10.2275 11.459 17.4486C11.459 24.6697 17.0608 30.514 23.9523 30.514C27.1495 30.514 30.0646 29.2637 32.2811 27.1985C30.6154 28.2662 28.654 28.8843 26.5584 28.8843C20.5132 28.8843 15.6234 23.7565 15.6234 17.4486" fill="#FFCC00"/>
<path d="M40.623 17.4346L46.6144 15.0042L40.2065 15.538L44.5993 10.635L39.0512 14.0207L40.9722 7.61447L37.3855 13.1778L36.4586 6.53271L35.7869 11.2953L35.5988 12.6721L35.5316 13.1778L31.9314 7.61447L33.8524 14.0207L28.3178 10.635L32.6972 15.538L26.3027 15.0042L32.2942 17.4346L26.3027 19.851L32.6972 19.3171L28.3178 24.2202L33.8524 20.8344L31.9314 27.2407L35.5316 21.6774L35.5988 22.1831L35.7869 23.5599L36.4586 28.3224L37.3855 21.6774L40.9722 27.2407L39.0512 20.8344L44.5993 24.2202L40.2065 19.3171L46.6144 19.851L40.623 17.4346Z" fill="#FFCC00"/>
</svg>
