<svg width="100" height="61" viewBox="0 0 100 61" fill="none" xmlns="http://www.w3.org/2000/svg">
<path d="M100 0H0V61H100V0Z" fill="white"/>
<path d="M28.7744 4.1725L65.2467 28.0555H37.1301L66.4154 58.6819H28.761V4.1725H28.7744ZM26.5713 0V61H71.7621L42.4633 30.3736H72.9308L26.5713 0Z" fill="#22368F"/>
<path d="M27.6729 2.09326V59.848H69.0887L39.8034 29.2075H69.0887L27.6729 2.09326Z" fill="#DC143C"/>
<path d="M38.0304 27.6762C42.5844 27.6762 46.2787 23.8127 46.2787 19.0502C45.5533 20.9608 44.2368 22.5624 42.571 23.6161L41.8591 23.0541L43.2427 21.9723L41.5635 21.5228L42.4501 19.9634L40.7306 20.2162L40.9724 18.418L39.4813 19.3452L39.0514 17.5891L38.0171 19.0361L36.9826 17.5891L36.5528 19.3452L35.0616 18.418L35.3169 20.2162L33.5973 19.9634L34.484 21.5228L32.8048 21.9723L34.2019 23.0541L33.4898 23.6161C31.8241 22.5764 30.5076 20.9749 29.7822 19.0502C29.7822 23.8127 33.4764 27.6762 38.0304 27.6762Z" fill="white"/>
<path d="M43.4575 46.052L46.883 44.5347L43.4575 43.0034L45.7009 39.8986L42.0066 40.3763L42.4634 36.4988L39.4811 38.859L38.0302 35.2625L36.566 38.859L33.5971 36.4988L34.0539 40.3763L30.3462 39.8986L32.5896 43.0034L29.1641 44.5347L32.5896 46.052L30.3462 49.1708L34.0539 48.6932L33.5971 52.5566L36.566 50.2105L38.0302 53.807L39.4811 50.2105L42.4634 52.5566L42.0066 48.6932L45.7009 49.1708L43.4575 46.052Z" fill="white"/>
</svg>
