<svg width="100" height="61" viewBox="0 0 100 61" fill="none" xmlns="http://www.w3.org/2000/svg">
<path d="M100 0H0V30.5H100V0Z" fill="#0038A8"/>
<path d="M100 30.5H0V61H100V30.5Z" fill="#CE1126"/>
<path d="M0 0V61L50.7658 30.5L0 0Z" fill="white"/>
<path d="M6.85149 55.1416L4.59465 53.7508L2.6602 55.6053L3.22439 52.936L0.954102 51.5732L3.54678 51.3063L4.07072 48.623L5.13194 51.1237L7.72463 50.8287L5.77681 52.641L6.85149 55.1416Z" fill="#FCD116"/>
<path d="M13.6885 24.9788L11.7809 21.5649L10.6928 21.4385L13.2989 25.3019L13.6885 24.9788ZM12.2108 26.5382L8.22099 23.3211L8.07324 21.4526L9.68529 21.3964L12.99 25.6251L12.2108 26.5382ZM11.6063 27.2688L8.31504 25.33L8.18073 24.1921L11.9152 26.8614L11.6063 27.2688Z" fill="#FCD116"/>
<path d="M18.3909 24.2764L19.3851 20.4691L18.6999 19.556L17.8939 24.2061L18.3909 24.2764ZM16.2952 24.2764L15.6774 19.0502L16.8461 17.6313L18.0148 18.7973L17.4506 24.2202L16.2818 24.2904L16.2952 24.2764ZM15.3683 24.3326L14.3877 20.5253L15.0728 19.6262L15.8654 24.2764L15.3683 24.3326Z" fill="#FCD116"/>
<path d="M22.2063 27.353L25.5244 25.4565L25.6722 24.3185L21.9107 26.9316L22.2063 27.353ZM20.7554 25.7655L23.9392 21.6773L25.7259 21.579V23.2648L21.6152 26.6085L20.7554 25.7655ZM20.0703 25.1193L22.0182 21.7335L23.1063 21.6211L20.4599 25.4565L20.0703 25.1333V25.1193Z" fill="#FCD116"/>
<path d="M22.7974 32.1297L26.4379 33.1693L27.3111 32.4668L22.8645 31.6239L22.7974 32.1437V32.1297ZM22.7974 29.938L27.7947 29.3059L29.1515 30.5281L28.0365 31.7503L22.8511 31.1603L22.7974 29.938ZM22.7302 28.9687L26.3707 27.9431L27.2305 28.6596L22.7839 29.4885L22.7168 28.9687H22.7302Z" fill="#FCD116"/>
<path d="M20.0164 36.0071L21.9239 39.407L23.0121 39.5334L20.3926 35.684L20.0029 36.0071H20.0164ZM21.4807 34.4337L25.4973 37.6228L25.6451 39.4913L24.033 39.5615L20.715 35.3468L21.494 34.4196L21.4807 34.4337ZM22.0851 33.6891L25.3764 35.6138L25.5241 36.7517L21.7896 34.0965L22.0851 33.6891Z" fill="#FCD116"/>
<path d="M15.3413 36.7377L14.374 40.5589L15.0592 41.4581L15.8383 36.7939L15.3413 36.7377ZM17.4369 36.7377L18.0817 41.9638L16.913 43.3968L15.7308 42.2448L16.2548 36.8079L17.4235 36.7377H17.4369ZM18.3639 36.6674L19.3714 40.4747L18.6997 41.3878L17.8668 36.7377L18.3639 36.6674Z" fill="#FCD116"/>
<path d="M11.5391 33.7453L8.26133 35.6981L8.12703 36.836L11.8481 34.1527L11.5391 33.7453ZM13.0168 35.3047L9.9002 39.4491L8.11358 39.5756L8.07324 37.8897L12.1437 34.4758L13.0168 35.3047ZM13.7154 35.951L11.8213 39.3648L10.7332 39.4913L13.3258 35.6138L13.7154 35.9369V35.951Z" fill="#FCD116"/>
<path d="M10.8812 28.9266L7.22721 27.915L6.36752 28.6315L10.8141 29.4464L10.8678 28.9266H10.8812ZM10.8812 31.1182L5.88385 31.7925L4.51367 30.5703L5.61524 29.334L10.8006 29.8819L10.8678 31.1041L10.8812 31.1182ZM10.9484 32.0875L7.30781 33.1412L6.43467 32.4388L10.8812 31.5677L10.9484 32.0875Z" fill="#FCD116"/>
<path d="M16.846 24.0656C20.2447 24.0656 22.9985 26.9456 22.9985 30.5C22.9985 34.0543 20.2447 36.9343 16.846 36.9343C13.4473 36.9343 10.6934 34.0543 10.6934 30.5C10.6934 26.9456 13.4473 24.0656 16.846 24.0656Z" fill="#FCD116"/>
<path d="M38.0176 32.7056L39.5624 30.5L38.0176 28.3084L40.4893 29.1653L42.0208 26.9456L42.0073 29.6711L44.4925 30.5L42.0073 31.3288L42.0208 34.0684L40.5028 31.8487L38.0176 32.7056Z" fill="#FCD116"/>
<path d="M6.85149 5.19805L4.59465 6.57483L2.6602 4.73444L3.22439 7.40371L0.954102 8.7524L3.54678 9.03338L4.07072 11.7027L5.13194 9.20196L7.72463 9.51104L5.77681 7.68469L6.85149 5.19805Z" fill="#FCD116"/>
</svg>
