<svg width="100" height="61" viewBox="0 0 100 61" fill="none" xmlns="http://www.w3.org/2000/svg">
<path d="M100 0H0V61H100V0Z" fill="white"/>
<path d="M100 0H25V61H100V0Z" fill="#01411C"/>
<path d="M76.0209 38.8872C69.4116 45.0406 59.296 44.4224 53.4121 37.4963C47.5416 30.5703 48.1327 19.9634 54.742 13.81C55.0241 13.5431 55.3331 13.3043 55.6286 13.0654C48.5626 15.4116 43.4443 22.3377 43.4443 30.5C43.4443 40.6152 51.2627 48.8056 60.9081 48.8056C67.9742 48.8056 74.0462 44.3943 76.8001 38.0723C76.5448 38.3533 76.2896 38.6202 76.0075 38.8872H76.0209Z" fill="white"/>
<path d="M67.961 23.9392L68.3775 28.3506L70.5134 24.5293L74.651 25.4846L71.8434 22.1691L73.9793 18.3478L70.1104 20.118L67.2894 16.8024L67.7058 21.2138L63.8369 22.998L67.961 23.9392Z" fill="white"/>
</svg>
