<svg width="100" height="60" viewBox="0 0 100 60" fill="none" xmlns="http://www.w3.org/2000/svg">
<path d="M100 0H0V30H100V0Z" fill="#ED2939"/>
<path d="M100 30H0V60H100V30Z" fill="white"/>
<path d="M29.997 15.0069C29.997 21.2391 25.0937 26.2967 19.0351 26.2967C12.9766 26.2967 8.07324 21.2391 8.07324 15.0069C8.07324 8.77478 12.99 3.73102 19.0351 3.73102C25.0803 3.73102 29.997 8.7886 29.997 15.0069Z" fill="white"/>
<path d="M33.4489 15.0069C33.4489 20.8936 28.8143 25.6748 23.0916 25.6748C17.3689 25.6748 12.7207 20.8936 12.7207 15.0069C12.7207 9.12023 17.3689 4.35284 23.0916 4.35284C28.8143 4.35284 33.4489 9.12023 33.4489 15.0069Z" fill="#DA1841"/>
<path d="M20.3919 15.2695L18.9008 14.0949L17.4097 15.2695L17.9872 13.3764L16.4961 12.2156H18.3365L18.9008 10.3087L19.4649 12.2156H21.3187L19.8142 13.3764L20.3919 15.2695Z" fill="white"/>
<path d="M32.0784 15.2695L30.6007 14.0949L29.1096 15.2695L29.6739 13.3764L28.1826 12.2156H30.023L30.5873 10.3087L31.165 12.2156H33.0054L31.5143 13.3764L32.0784 15.2695Z" fill="white"/>
<path d="M26.2491 10.8061L24.758 9.63152L23.2668 10.8061L23.831 8.91296L22.3398 7.75221H24.1937L24.758 5.85907L25.3221 7.75221H27.1625L25.6714 8.91296L26.2491 10.8061Z" fill="white"/>
<path d="M22.5821 22.4137L21.091 21.2391L19.5999 22.4137L20.1774 20.5205L18.6729 19.346L20.5267 19.3598L21.091 17.4528L21.6551 19.3598L23.5089 19.346L22.0044 20.5205L22.5821 22.4137Z" fill="white"/>
<path d="M29.8889 22.4137L28.4113 21.2391L26.9202 22.4137L27.4844 20.5205L25.9932 19.346L27.847 19.3598L28.4113 17.4528L28.9756 19.3598L30.816 19.346L29.3248 20.5205L29.8889 22.4137Z" fill="white"/>
</svg>
