<svg width="100" height="60" viewBox="0 0 100 60" fill="none" xmlns="http://www.w3.org/2000/svg">
<path d="M100 0H0V60H100V0Z" fill="#E30A17"/>
<path d="M36.2862 15.0069C44.3464 15.0069 50.8751 21.7227 50.8751 30.0138C50.8751 38.3049 44.3464 45.0207 36.2862 45.0207C28.226 45.0207 21.6973 38.3049 21.6973 30.0138C21.6973 21.7227 28.226 15.0069 36.2862 15.0069Z" fill="white"/>
<path d="M39.9259 18.0055C46.3741 18.0055 51.5999 23.3809 51.5999 30.0138C51.5999 36.6467 46.3741 42.0083 39.9259 42.0083C33.4778 42.0083 28.2656 36.6329 28.2656 30.0138C28.2656 23.3947 33.4912 18.0055 39.9259 18.0055Z" fill="#E30A17"/>
<path d="M48.6035 30L55.5352 32.3215L56.6637 28.7563L48.6035 30Z" fill="white"/>
<path d="M48.6035 30L55.5352 27.6785L56.6637 31.2575L48.6035 30Z" fill="white"/>
<path d="M53.6426 22.8696V30.3731H57.283L53.6426 22.8696Z" fill="white"/>
<path d="M53.6426 22.8696L57.9278 28.936L54.9725 31.1469L53.6426 22.8696Z" fill="white"/>
<path d="M53.6426 37.1442L57.9278 31.064L54.9725 28.8669L53.6426 37.1442Z" fill="white"/>
<path d="M53.6426 37.1441V29.6407H57.283L53.6426 37.1441Z" fill="white"/>
<path d="M61.7967 25.5919L54.8516 27.9134L55.9799 31.4786L61.7967 25.5919Z" fill="white"/>
<path d="M61.7974 25.5919L57.5121 31.6582L54.5566 29.4611L61.7974 25.5919Z" fill="white"/>
<path d="M61.7974 34.4081L57.5121 28.3417L54.5566 30.5527L61.7974 34.4081Z" fill="white"/>
<path d="M61.7967 34.4081L54.8516 32.1004L55.9799 28.5214L61.7967 34.4081Z" fill="white"/>
</svg>
